<?xml version="1.0" encoding="UTF-8" standalone="no"?>
<svg width="20px" height="20px" viewBox="0 0 20 20" version="1.1" xmlns="http://www.w3.org/2000/svg" xmlns:xlink="http://www.w3.org/1999/xlink">
    <!-- Generator: Sketch 3.6.1 (26313) - http://www.bohemiancoding.com/sketch -->
    <title>FB</title>
    <desc>Created with Sketch.</desc>
    <defs></defs>
    <g id="Page-1" stroke="none" stroke-width="1" fill="none" fill-rule="evenodd">
        <g id="PRODUCT-OVERZICHT-PAGINA" transform="translate(-83.000000, -1362.000000)" fill="#3B5998">
            <g id="Header" transform="translate(-313.000000, 0.000000)">
                <g id="Footer" transform="translate(302.000000, 1276.000000)">
                    <g id="social" transform="translate(70.000000, 56.000000)">
                        <g id="FB" transform="translate(24.000000, 30.000000)">
                            <path d="M6.54886364,7.68882114 L7.88785748,7.68882114 L7.88785748,6.36589431 C7.88785748,5.78199187 7.90225139,4.88199187 8.3189552,4.32443089 C8.75832942,3.73430894 9.36107457,3.33333333 10.3981561,3.33333333 C12.0876417,3.33333333 12.7990609,3.57808943 12.7990609,3.57808943 L12.4640426,5.59577236 C12.4640426,5.59577236 11.9062784,5.43113821 11.3855786,5.43113821 C10.8645189,5.43113821 10.3981561,5.62101626 10.3981561,6.1504065 L10.3981561,7.68882114 L12.533853,7.68882114 L12.384876,9.65930894 L10.3981561,9.65930894 L10.3981561,16.504065 L7.88785748,16.504065 L7.88785748,9.65930894 L6.54886364,9.65930894 L6.54886364,7.68882114" id="Fill-3"></path>
                            <path d="M18.2713295,5.01460317 C17.3989274,3.49301587 16.2154541,2.28825397 14.720754,1.40015873 C13.225586,0.512063492 11.5935157,0.0680952381 9.82345138,0.0680952381 C8.05338709,0.0680952381 6.42084894,0.512063492 4.92614878,1.40015873 C3.43129269,2.28809524 2.24781948,3.49285714 1.37541729,5.01460317 C0.502859172,6.53634921 0.066736039,8.19825397 0.066736039,10 C0.066736039,11.8019048 0.503015097,13.4634921 1.37526136,14.9853968 C2.24766356,16.5068254 3.43113677,17.711746 4.92599286,18.5998413 C6.42084894,19.4877778 8.05323117,19.931746 9.82329545,19.931746 C11.5933597,19.931746 13.2258979,19.4877778 14.7205981,18.5998413 C16.2152982,17.711746 17.3987714,16.5068254 18.2711736,14.9853968 C19.1434199,13.4634921 19.579543,11.801746 19.579543,10 C19.579543,8.19809524 19.1434199,6.53619048 18.2713295,5.01460317 L18.2713295,5.01460317 Z M17.3058399,13.2136508 C16.8737709,14.2352381 16.2959116,15.1147619 15.5717944,15.851746 C14.8478331,16.5888889 13.9838509,17.1773016 12.9803155,17.6168254 C11.9766242,18.0566667 10.9244401,18.2765079 9.82345138,18.2765079 C8.72246266,18.2765079 7.67027857,18.0565079 6.66658726,17.6168254 C5.66305187,17.1771429 4.79906964,16.5887302 4.07495244,15.851746 C3.35099115,15.1146032 2.77297597,14.2353968 2.3409069,13.2136508 C1.90899375,12.1920635 1.69303718,11.1206349 1.69303718,10 C1.69303718,8.87920635 1.90899375,7.80809524 2.3409069,6.78634921 C2.77282005,5.7647619 3.35083523,4.88539683 4.07495244,4.14809524 C4.79906964,3.41111111 5.66305187,2.82269841 6.66658726,2.38285714 C7.67012265,1.94333333 8.72246266,1.72349206 9.82345138,1.72349206 C10.9242842,1.72349206 11.9767801,1.9431746 12.9803155,2.38285714 C13.9838509,2.82253968 14.8476772,3.41095238 15.5717944,4.14809524 C16.2959116,4.8852381 16.8739268,5.76460317 17.3058399,6.78634921 C17.7377531,7.80793651 17.9538656,8.87904762 17.9538656,10 C17.9540215,11.1207937 17.7377531,12.1922222 17.3058399,13.2136508 L17.3058399,13.2136508 Z" id="Shape"></path>
                            <path d="M18.2713295,5.01460317 C17.3989274,3.49301587 16.2154541,2.28825397 14.720754,1.40015873 C13.225586,0.512063492 11.5935157,0.0680952381 9.82345138,0.0680952381 C8.05338709,0.0680952381 6.42084894,0.512063492 4.92614878,1.40015873 C3.43129269,2.28809524 2.24781948,3.49285714 1.37541729,5.01460317 C0.502859172,6.53634921 0.066736039,8.19825397 0.066736039,10 C0.066736039,11.8019048 0.503015097,13.4634921 1.37526136,14.9853968 C2.24766356,16.5068254 3.43113677,17.711746 4.92599286,18.5998413 C6.42084894,19.4877778 8.05323117,19.931746 9.82329545,19.931746 C11.5933597,19.931746 13.2258979,19.4877778 14.7205981,18.5998413 C16.2152982,17.711746 17.3987714,16.5068254 18.2711736,14.9853968 C19.1434199,13.4634921 19.579543,11.801746 19.579543,10 C19.579543,8.19809524 19.1434199,6.53619048 18.2713295,5.01460317 L18.2713295,5.01460317 Z M17.3058399,13.2136508 C16.8737709,14.2352381 16.2959116,15.1147619 15.5717944,15.851746 C14.8478331,16.5888889 13.9838509,17.1773016 12.9803155,17.6168254 C11.9766242,18.0566667 10.9244401,18.2765079 9.82345138,18.2765079 C8.72246266,18.2765079 7.67027857,18.0565079 6.66658726,17.6168254 C5.66305187,17.1771429 4.79906964,16.5887302 4.07495244,15.851746 C3.35099115,15.1146032 2.77297597,14.2353968 2.3409069,13.2136508 C1.90899375,12.1920635 1.69303718,11.1206349 1.69303718,10 C1.69303718,8.87920635 1.90899375,7.80809524 2.3409069,6.78634921 C2.77282005,5.7647619 3.35083523,4.88539683 4.07495244,4.14809524 C4.79906964,3.41111111 5.66305187,2.82269841 6.66658726,2.38285714 C7.67012265,1.94333333 8.72246266,1.72349206 9.82345138,1.72349206 C10.9242842,1.72349206 11.9767801,1.9431746 12.9803155,2.38285714 C13.9838509,2.82253968 14.8476772,3.41095238 15.5717944,4.14809524 C16.2959116,4.8852381 16.8739268,5.76460317 17.3058399,6.78634921 C17.7377531,7.80793651 17.9538656,8.87904762 17.9538656,10 C17.9540215,11.1207937 17.7377531,12.1922222 17.3058399,13.2136508 L17.3058399,13.2136508 Z" id="Shape"></path>
                        </g>
                    </g>
                </g>
            </g>
        </g>
    </g>
</svg>