<?xml version="1.0" encoding="utf-8"?>
<!-- Generator: Adobe Illustrator 15.1.0, SVG Export Plug-In . SVG Version: 6.00 Build 0)  -->
<!DOCTYPE svg PUBLIC "-//W3C//DTD SVG 1.1//EN" "http://www.w3.org/Graphics/SVG/1.1/DTD/svg11.dtd">
<svg version="1.1" id="Layer_1" xmlns="http://www.w3.org/2000/svg" xmlns:xlink="http://www.w3.org/1999/xlink" x="0px" y="0px"
	 width="192.667px" height="20.107px" viewBox="-2.125 0 192.667 20.107" enable-background="new -2.125 0 192.667 20.107"
	 xml:space="preserve">
<g>
	<path fill="#0058A0" d="M112.929,15.723l1.862-10.794h2.892l-1.8,10.794 M126.549,5.187c-0.578-0.193-1.479-0.45-2.635-0.45
		c-2.891,0-4.947,1.478-4.947,3.534c0,1.541,1.479,2.44,2.57,2.955c1.156,0.514,1.543,0.835,1.543,1.349
		c0,0.707-0.899,1.029-1.735,1.029c-1.155,0-1.8-0.193-2.763-0.578l-0.386-0.193l-0.386,2.44c0.707,0.321,1.927,0.579,3.275,0.579
		c3.084,0,5.076-1.414,5.142-3.662c0-1.222-0.771-2.186-2.44-2.956c-1.029-0.515-1.672-0.835-1.672-1.35
		c0-0.448,0.514-0.898,1.672-0.898c0.963,0,1.67,0.191,2.184,0.386l0.258,0.129L126.549,5.187L126.549,5.187z M134.066,4.929h-2.248
		c-0.707,0-1.222,0.192-1.543,0.898l-4.368,9.896h3.084c0,0,0.514-1.35,0.643-1.605h3.791c0.063,0.385,0.386,1.605,0.386,1.605
		h2.698L134.066,4.929z M130.404,11.867c0.257-0.642,1.156-3.02,1.156-3.02s0.258-0.643,0.386-1.027l0.192,0.898
		c0,0,0.577,2.57,0.707,3.084h-2.441V11.867L130.404,11.867z M110.487,4.929l-2.892,7.324l-0.321-1.478
		c-0.514-1.735-2.185-3.6-4.048-4.498l2.635,9.444h3.084l4.625-10.729h-3.083V4.929z"/>
	<path fill="#FAA61A" d="M104.962,4.929h-4.754l-0.064,0.258c3.662,0.898,6.104,3.02,7.131,5.652l-1.027-4.946
		C106.118,5.187,105.604,4.929,104.962,4.929z"/>
</g>
<g>
	<path fill="#010101" d="M2.467,11.226h2.827v4.688H2.467V11.226z M5.486,8.912c0,0.899-0.707,1.606-1.606,1.606
		S2.274,9.811,2.274,8.912c0-0.898,0.707-1.605,1.606-1.605S5.486,8.013,5.486,8.912z"/>
	<path fill="#010101" d="M10.69,2.552H0.475v15.482H10.69c2.248-0.064,3.982-0.578,5.268-1.67c1.542-1.285,2.313-3.341,2.313-6.104
		c0-1.284-0.193-2.506-0.578-3.47c-0.386-0.964-0.964-1.798-1.671-2.44C14.609,3.195,12.811,2.552,10.69,2.552L10.69,2.552z
		 M10.497,3.581c1.991,0,3.599,0.514,4.754,1.542c1.286,1.156,1.928,2.892,1.928,5.14c0,4.497-2.184,6.683-6.682,6.683H1.502V3.515
		C2.402,3.581,10.112,3.581,10.497,3.581z"/>
	<path fill="#CC1B69" d="M10.177,15.98H6.578V4.801h3.599h-0.129c3.02,0,6.232,1.222,6.232,5.589c0,4.626-3.213,5.525-6.232,5.525
		h0.129V15.98z"/>
	<g>
		<path fill="#FFFFFF" d="M6,7.692h0.963c0.258,0,0.387,0,0.515,0.063C7.607,7.82,7.799,7.885,7.864,8.013
			C7.993,8.142,8.057,8.27,8.121,8.463s0.064,0.385,0.064,0.644c0,0.191,0,0.385-0.064,0.577c-0.063,0.192-0.192,0.387-0.257,0.45
			c-0.129,0.063-0.193,0.191-0.386,0.191c-0.128,0.063-0.257,0.063-0.45,0.063H6V7.692z M6.514,8.142v1.799h0.707
			c0.064,0,0.193-0.064,0.193-0.129c0-0.065,0.128-0.129,0.128-0.258c0-0.128,0.064-0.257,0.064-0.514c0-0.193,0-0.386-0.064-0.449
			C7.478,8.463,7.478,8.399,7.414,8.334C7.35,8.27,7.285,8.206,7.156,8.206H6.707L6.514,8.142z"/>
		<path fill="#FFFFFF" d="M5.871,7.627v2.827h1.092c0.193,0,0.387,0,0.515-0.064c0.192-0.063,0.321-0.128,0.386-0.256
			c0.129-0.129,0.257-0.321,0.321-0.515s0.064-0.386,0.064-0.578c0-0.257-0.064-0.449-0.064-0.643
			c-0.064-0.192-0.128-0.32-0.257-0.449C7.799,7.82,7.67,7.756,7.478,7.691C7.35,7.627,7.157,7.627,6.963,7.627H5.871z M6.963,7.756
			c0.193,0,0.387,0,0.515,0.064c0.129,0.063,0.257,0.129,0.386,0.258c0.129,0.128,0.193,0.256,0.257,0.385
			c0.064,0.192,0.064,0.385,0.064,0.578c0,0.192,0,0.386-0.064,0.578c-0.063,0.192-0.128,0.321-0.257,0.45
			C7.8,10.133,7.671,10.197,7.543,10.26s-0.257,0.063-0.45,0.063H6.128V7.819C6.192,7.756,6.963,7.756,6.963,7.756z"/>
		<path fill="#FFFFFF" d="M6.449,8.078v1.927H7.22c0.129,0,0.193-0.063,0.257-0.129c0.064-0.063,0.129-0.129,0.192-0.321
			c0.064-0.128,0.064-0.32,0.064-0.514s0-0.386-0.064-0.514C7.606,8.398,7.541,8.334,7.477,8.206
			C7.414,8.142,7.285,8.078,7.22,8.078H6.449z M6.771,8.206h0.45c0.064,0,0.193,0.063,0.193,0.128c0,0.065,0.128,0.129,0.128,0.258
			c0.064,0.128,0.064,0.256,0.064,0.449c0,0.192,0,0.386-0.064,0.449C7.478,9.619,7.478,9.681,7.414,9.747
			C7.35,9.811,7.285,9.811,7.221,9.876H6.899H6.578V8.27C6.643,8.206,6.771,8.206,6.771,8.206z M8.827,10.389V7.692h1.992v0.45
			H9.341v0.577h1.35v0.449h-1.35v0.707h1.479v0.514H8.827z"/>
		<path fill="#FFFFFF" d="M8.763,7.627v2.827h2.185V9.876H9.47V9.298h1.35V8.719H9.47V8.27h1.478V7.692L8.763,7.627z M10.755,7.756
			v0.322H9.276v0.706h1.35v0.321h-1.35v0.898h1.479v0.32H8.891V7.819C9.02,7.756,10.626,7.756,10.755,7.756z"/>
		<g>
			<path fill="#FFFFFF" d="M13.902,10.389h-0.578l-0.257-0.643h-1.093l-0.192,0.643h-0.578l1.028-2.697h0.578L13.902,10.389z
				 M12.875,9.298l-0.387-0.964l-0.385,0.964H12.875z"/>
			<path fill="#FFFFFF" d="M12.168,7.627l-1.093,2.827h0.707c0,0,0.192-0.514,0.192-0.578h0.964
				c0.064,0.064,0.257,0.578,0.257,0.578h0.771L12.81,7.627H12.168z M12.746,7.756c0.064,0.064,0.964,2.378,1.028,2.506h-0.45
				c-0.064-0.063-0.257-0.578-0.257-0.578H11.91c0,0-0.192,0.515-0.192,0.578h-0.385c0.063-0.191,0.963-2.44,0.963-2.506H12.746z"/>
			<path fill="#FFFFFF" d="M12.039,9.362h0.964l-0.45-1.284L12.039,9.362z M12.553,8.527c0.064,0.191,0.193,0.578,0.258,0.706
				h-0.515C12.296,9.106,12.425,8.719,12.553,8.527z"/>
		</g>
		<g>
			<path fill="#FFFFFF" d="M14.353,10.389V7.756h0.514v2.186h1.35v0.448H14.353z"/>
			<path fill="#FFFFFF" d="M14.288,7.627v2.827h2.057V9.876h-1.35V7.691h-0.707V7.627z M14.802,7.756v2.186h1.35v0.32h-1.735V7.756
				H14.802z"/>
		</g>
	</g>
</g>
<g>
	<path fill="#253B80" d="M36.215,7.161h-2.568c-0.176,0-0.325,0.128-0.353,0.302l-1.039,6.586c-0.021,0.131,0.08,0.248,0.212,0.248
		h1.227c0.176,0,0.325-0.128,0.353-0.302l0.28-1.776c0.027-0.174,0.177-0.302,0.353-0.302h0.813c1.692,0,2.669-0.818,2.924-2.44
		c0.115-0.711,0.005-1.269-0.327-1.658C37.723,7.388,37.075,7.161,36.215,7.161z M36.512,9.567
		c-0.141,0.921-0.845,0.921-1.525,0.921h-0.388l0.271-1.721c0.017-0.104,0.106-0.182,0.212-0.182h0.178c0.464,0,0.901,0,1.127,0.266
		C36.521,9.009,36.563,9.243,36.512,9.567z"/>
	<path fill="#253B80" d="M43.895,9.537h-1.23c-0.105,0-0.195,0.077-0.212,0.182l-0.055,0.345l-0.086-0.125
		c-0.266-0.388-0.859-0.517-1.452-0.517c-1.359,0-2.521,1.029-2.747,2.475c-0.117,0.72,0.05,1.408,0.459,1.89
		c0.375,0.442,0.911,0.625,1.549,0.625c1.096,0,1.703-0.703,1.703-0.703l-0.056,0.342c-0.021,0.131,0.08,0.248,0.212,0.248h1.107
		c0.177,0,0.325-0.129,0.353-0.303l0.665-4.21C44.126,9.655,44.025,9.537,43.895,9.537z M42.179,11.931
		c-0.118,0.703-0.676,1.176-1.388,1.176c-0.357,0-0.643-0.115-0.826-0.332c-0.181-0.216-0.25-0.521-0.192-0.864
		c0.111-0.697,0.678-1.184,1.378-1.184c0.35,0,0.634,0.114,0.82,0.335C42.159,11.282,42.232,11.592,42.179,11.931z"/>
	<path fill="#253B80" d="M50.445,9.537h-1.236c-0.117,0-0.229,0.059-0.296,0.157l-1.705,2.511l-0.722-2.413
		C46.44,9.64,46.3,9.537,46.143,9.537h-1.215c-0.147,0-0.25,0.145-0.203,0.284l1.361,3.995l-1.28,1.807
		c-0.101,0.143,0.001,0.338,0.175,0.338h1.234c0.117,0,0.228-0.057,0.294-0.151l4.111-5.936C50.72,9.732,50.618,9.537,50.445,9.537z
		"/>
	<path fill="#179BD7" d="M54.538,7.161h-2.569c-0.175,0-0.325,0.128-0.353,0.302l-1.038,6.586c-0.021,0.131,0.079,0.248,0.21,0.248
		h1.318c0.123,0,0.228-0.09,0.247-0.211l0.295-1.867c0.026-0.174,0.177-0.302,0.352-0.302h0.813c1.692,0,2.669-0.818,2.924-2.44
		c0.115-0.711,0.004-1.269-0.328-1.658C56.045,7.388,55.397,7.161,54.538,7.161z M54.834,9.567c-0.14,0.921-0.844,0.921-1.525,0.921
		h-0.388l0.272-1.721c0.017-0.104,0.105-0.182,0.211-0.182h0.178c0.464,0,0.901,0,1.128,0.266
		C54.845,9.009,54.886,9.243,54.834,9.567z"/>
	<path fill="#179BD7" d="M62.216,9.537h-1.229c-0.105,0-0.195,0.077-0.211,0.182l-0.055,0.345l-0.086-0.125
		c-0.267-0.388-0.859-0.517-1.452-0.517c-1.359,0-2.521,1.029-2.746,2.475c-0.117,0.72,0.049,1.408,0.458,1.89
		c0.375,0.442,0.911,0.625,1.55,0.625c1.095,0,1.702-0.703,1.702-0.703l-0.055,0.342c-0.021,0.131,0.079,0.248,0.211,0.248h1.108
		c0.175,0,0.324-0.129,0.353-0.303l0.665-4.21C62.448,9.655,62.348,9.537,62.216,9.537z M60.502,11.931
		c-0.119,0.703-0.677,1.176-1.389,1.176c-0.356,0-0.643-0.115-0.826-0.332c-0.182-0.216-0.25-0.521-0.192-0.864
		c0.111-0.697,0.678-1.184,1.378-1.184c0.35,0,0.634,0.114,0.82,0.335C60.481,11.282,60.556,11.592,60.502,11.931z"/>
	<path fill="#179BD7" d="M63.666,7.342l-1.054,6.707c-0.021,0.131,0.08,0.248,0.211,0.248h1.06c0.177,0,0.326-0.128,0.353-0.302
		l1.04-6.587c0.021-0.13-0.08-0.247-0.211-0.247h-1.187C63.772,7.161,63.683,7.238,63.666,7.342z"/>
	<path fill="#253B80" d="M24.453,15.577l0.196-1.248l-0.438-0.01h-2.09l1.452-9.208c0.004-0.027,0.02-0.053,0.04-0.072
		c0.021-0.018,0.049-0.028,0.078-0.028h3.522c1.17,0,1.978,0.243,2.398,0.725c0.198,0.226,0.323,0.461,0.385,0.721
		c0.063,0.271,0.064,0.597,0.002,0.993l-0.004,0.028v0.254l0.197,0.111c0.166,0.088,0.299,0.189,0.4,0.306
		c0.169,0.192,0.278,0.438,0.324,0.728c0.048,0.299,0.032,0.654-0.046,1.058c-0.091,0.463-0.236,0.865-0.433,1.195
		c-0.182,0.305-0.412,0.557-0.686,0.751c-0.262,0.187-0.572,0.326-0.924,0.416c-0.34,0.089-0.729,0.133-1.153,0.133h-0.274
		c-0.196,0-0.387,0.071-0.536,0.197c-0.149,0.13-0.249,0.308-0.279,0.5l-0.021,0.112l-0.348,2.199l-0.016,0.08
		c-0.004,0.024-0.011,0.037-0.021,0.047c-0.01,0.008-0.022,0.014-0.036,0.014L24.453,15.577L24.453,15.577z"/>
	<path fill="#179BD7" d="M30.381,7.506L30.381,7.506L30.381,7.506c-0.011,0.067-0.023,0.137-0.036,0.207
		c-0.465,2.386-2.055,3.209-4.085,3.209h-1.033c-0.248,0-0.458,0.182-0.496,0.426l0,0l0,0l-0.529,3.356l-0.15,0.951
		c-0.024,0.161,0.099,0.306,0.262,0.306h1.833c0.217,0,0.401-0.157,0.436-0.372l0.019-0.093l0.345-2.19l0.022-0.119
		c0.033-0.216,0.219-0.373,0.436-0.373h0.274c1.776,0,3.167-0.722,3.573-2.809c0.169-0.872,0.082-1.6-0.367-2.111
		C30.746,7.738,30.578,7.61,30.381,7.506z"/>
	<path fill="#222D65" d="M29.895,7.313c-0.071-0.021-0.145-0.04-0.22-0.058c-0.075-0.017-0.152-0.03-0.232-0.044
		c-0.278-0.045-0.584-0.065-0.911-0.065H25.77c-0.067,0-0.133,0.016-0.19,0.043c-0.127,0.062-0.222,0.182-0.244,0.329l-0.588,3.722
		l-0.017,0.107c0.038-0.244,0.248-0.426,0.496-0.426h1.033c2.03,0,3.62-0.824,4.085-3.209c0.014-0.07,0.025-0.14,0.036-0.207
		c-0.118-0.063-0.245-0.115-0.382-0.161C29.965,7.334,29.93,7.323,29.895,7.313z"/>
	<path fill="#253B80" d="M25.335,7.518c0.022-0.147,0.117-0.269,0.244-0.328c0.059-0.028,0.123-0.044,0.19-0.044h2.762
		c0.327,0,0.633,0.021,0.911,0.066c0.08,0.013,0.157,0.026,0.232,0.044c0.075,0.018,0.148,0.035,0.22,0.057
		c0.035,0.011,0.07,0.021,0.104,0.031c0.137,0.046,0.265,0.101,0.382,0.161c0.139-0.881-0.001-1.48-0.478-2.024
		c-0.525-0.599-1.474-0.854-2.688-0.854h-3.523c-0.248,0-0.459,0.18-0.498,0.425l-1.467,9.304c-0.029,0.184,0.113,0.35,0.298,0.35
		H24.2l0.546-3.465L25.335,7.518z"/>
</g>
<g id="Mastercard_logo">
	<path fill="#FCB131" d="M83.108,16.504c1.491,1.354,3.494,2.173,5.673,2.173c4.679,0,8.465-3.756,8.465-8.376
		c0-4.634-3.786-8.389-8.465-8.389c-2.179,0-4.182,0.82-5.673,2.173c-1.711,1.54-2.793,3.755-2.793,6.216
		S81.397,14.979,83.108,16.504L83.108,16.504z"/>
	<path fill="#FCB131" d="M96.12,14.964c0-0.144,0.117-0.26,0.264-0.26c0.16,0,0.277,0.116,0.277,0.26
		c0,0.158-0.117,0.273-0.277,0.273C96.237,15.237,96.12,15.122,96.12,14.964L96.12,14.964z M96.383,15.179
		c0.117,0,0.22-0.102,0.22-0.217c0-0.114-0.103-0.201-0.22-0.201c-0.103,0-0.205,0.087-0.205,0.201
		C96.178,15.078,96.281,15.179,96.383,15.179L96.383,15.179z M96.354,15.093h-0.059v-0.244h0.102c0.015,0,0.045,0,0.059,0.016
		c0.03,0.014,0.03,0.028,0.03,0.058c0,0.028-0.015,0.058-0.044,0.058l0.059,0.114h-0.074l-0.029-0.101h-0.043L96.354,15.093
		l0.001-0.144h0.029c0.014,0,0.028,0,0.028,0c0.015,0,0.015-0.015,0.015-0.028c0-0.015,0-0.015-0.015-0.028c0,0-0.015,0-0.028,0
		h-0.029v0.058L96.354,15.093L96.354,15.093z"/>
	<path fill="#ED1C2E" d="M85.841,9.408c-0.029-0.302-0.088-0.589-0.146-0.893h-5.176c0.059-0.303,0.146-0.59,0.234-0.878h4.693
		c-0.103-0.303-0.22-0.604-0.351-0.893h-3.978c0.146-0.302,0.307-0.604,0.483-0.893h2.997c-0.19-0.303-0.409-0.604-0.644-0.879
		h-1.711c0.263-0.315,0.556-0.617,0.863-0.891C81.599,2.745,79.61,1.91,77.417,1.91c-4.665,0-8.466,3.755-8.466,8.389
		c0,4.62,3.801,8.376,8.466,8.376c2.191,0,4.182-0.819,5.688-2.173l0,0l0,0c0.307-0.272,0.584-0.562,0.848-0.878h-1.711
		c-0.234-0.288-0.438-0.577-0.644-0.893h2.998c0.19-0.288,0.351-0.576,0.497-0.894h-3.978c-0.132-0.288-0.263-0.575-0.365-0.878
		h4.693c0.103-0.287,0.175-0.59,0.248-0.892c0.059-0.288,0.117-0.591,0.146-0.894c0.029-0.287,0.044-0.576,0.044-0.878
		C85.885,9.998,85.871,9.696,85.841,9.408L85.841,9.408z"/>
	<path fill="#FFFFFF" d="M96.12,12.243c0-0.158,0.117-0.272,0.264-0.272c0.16,0,0.277,0.114,0.277,0.272
		c0,0.145-0.117,0.274-0.277,0.274C96.237,12.518,96.12,12.387,96.12,12.243L96.12,12.243z M96.383,12.445
		c0.117,0,0.22-0.086,0.22-0.202c0-0.114-0.103-0.2-0.22-0.2c-0.103,0-0.205,0.086-0.205,0.2
		C96.178,12.359,96.281,12.445,96.383,12.445L96.383,12.445z M96.354,12.359h-0.059v-0.23h0.102c0.015,0,0.045,0,0.059,0
		c0.03,0.016,0.03,0.043,0.03,0.071c0,0.016-0.015,0.043-0.044,0.058l0.059,0.103h-0.074l-0.029-0.088h-0.043L96.354,12.359
		l0.001-0.13h0.029c0.014,0,0.028,0,0.028-0.015c0.015,0,0.015-0.016,0.015-0.029c0,0,0-0.015-0.015-0.015c0-0.015-0.015,0-0.028,0
		h-0.029v0.059L96.354,12.359L96.354,12.359z"/>
	<path fill="#003473" d="M80.227,12.719c-0.277,0.072-0.482,0.115-0.687,0.115c-0.439,0-0.702-0.273-0.702-0.763
		c0-0.102,0.015-0.202,0.029-0.317l0.059-0.331l0.044-0.271l0.394-2.361h0.878l-0.103,0.52h0.556l-0.132,0.863h-0.555l-0.234,1.409
		c-0.015,0.073-0.015,0.115-0.015,0.146c0,0.188,0.088,0.259,0.308,0.259c0.103,0,0.189-0.015,0.277-0.028L80.227,12.719
		L80.227,12.719z"/>
	<path fill="#003473" d="M83.064,12.69c-0.322,0.087-0.614,0.13-0.937,0.13c-0.994,0-1.564-0.52-1.564-1.539
		c0-1.195,0.674-2.059,1.608-2.059c0.746,0,1.229,0.488,1.229,1.251c0,0.26-0.029,0.505-0.103,0.851H81.47
		c-0.015,0.058-0.015,0.085-0.015,0.114c0,0.402,0.277,0.604,0.804,0.604c0.337,0,0.629-0.072,0.95-0.216L83.064,12.69L83.064,12.69
		z M82.522,10.632c0-0.071,0-0.13,0-0.172c0-0.288-0.16-0.446-0.438-0.446c-0.292,0-0.497,0.216-0.584,0.618H82.522L82.522,10.632z"
		/>
	<polygon fill="#003473" points="73.208,12.761 72.302,12.761 72.829,9.495 71.645,12.761 71.016,12.761 70.942,9.51 70.387,12.761 
		69.496,12.761 70.211,8.517 71.542,8.517 71.572,11.135 72.463,8.517 73.925,8.517 	"/>
	<path fill="#003473" d="M75.417,11.221c-0.087-0.014-0.116-0.014-0.176-0.014c-0.525,0-0.789,0.2-0.789,0.519
		c0,0.216,0.131,0.358,0.337,0.358C75.226,12.085,75.402,11.726,75.417,11.221L75.417,11.221z M76.148,12.761h-0.79l0.015-0.358
		c-0.205,0.272-0.482,0.417-0.965,0.417c-0.438,0-0.818-0.389-0.818-0.95c0-0.157,0.029-0.302,0.073-0.446
		c0.146-0.53,0.688-0.862,1.521-0.877c0.102,0,0.264,0,0.409,0.015c0.03-0.115,0.03-0.157,0.03-0.229
		c0-0.229-0.191-0.303-0.615-0.303c-0.263,0-0.556,0.043-0.76,0.115l-0.132,0.028l-0.058,0.015l0.131-0.777
		c0.424-0.129,0.731-0.188,1.067-0.188c0.789,0,1.214,0.36,1.214,1.022c0,0.173,0.015,0.302-0.044,0.677l-0.205,1.236l-0.028,0.217
		l-0.015,0.173l-0.015,0.114L76.148,12.761L76.148,12.761z"/>
	<path fill="#003473" d="M87.479,9.337c0.264,0,0.497,0.071,0.818,0.23l0.161-0.921c-0.088-0.043-0.116-0.043-0.233-0.087
		L87.86,8.458c-0.117-0.028-0.264-0.043-0.424-0.043c-0.453,0-0.717,0.015-0.995,0.173c-0.146,0.102-0.336,0.23-0.54,0.46
		L85.784,9.02l-0.936,0.646l0.043-0.36h-0.964l-0.571,3.454h0.921l0.337-1.856c0,0,0.132-0.258,0.189-0.345
		c0.176-0.217,0.322-0.217,0.512-0.217c0.03,0,0.059,0,0.073,0c-0.029,0.202-0.043,0.417-0.043,0.662
		c0,1.123,0.643,1.828,1.637,1.828c0.249,0,0.468-0.029,0.805-0.115l0.16-0.978c-0.292,0.157-0.556,0.229-0.774,0.229
		c-0.542,0-0.863-0.402-0.863-1.035C86.309,9.998,86.792,9.337,87.479,9.337L87.479,9.337z"/>
	<path fill="#003473" d="M95.242,8.517l-0.204,1.209c-0.22-0.331-0.481-0.489-0.833-0.489c-0.483,0-0.937,0.272-1.214,0.791v-0.015
		l-0.585-0.346l0.059-0.359h-0.979l-0.556,3.453h0.906l0.307-1.856c0,0,0.234-0.258,0.293-0.345c0.146-0.174,0.293-0.201,0.41-0.217
		c-0.104,0.288-0.162,0.635-0.162,1.021c0,0.864,0.454,1.438,1.126,1.438c0.336,0,0.6-0.114,0.849-0.388l-0.045,0.345h0.863
		l0.701-4.245h-0.936V8.517z M94.117,11.942c-0.307,0-0.468-0.229-0.468-0.678c0-0.676,0.292-1.164,0.716-1.164
		c0.322,0,0.482,0.243,0.482,0.677C94.847,11.467,94.556,11.942,94.117,11.942L94.117,11.942z"/>
	<path fill="#003473" d="M89.891,11.221c-0.088-0.014-0.117-0.014-0.175-0.014c-0.526,0-0.79,0.2-0.79,0.519
		c0,0.216,0.132,0.358,0.337,0.358C89.702,12.085,89.877,11.726,89.891,11.221L89.891,11.221z M90.623,12.761h-0.804l0.028-0.358
		c-0.204,0.272-0.482,0.417-0.964,0.417c-0.454,0-0.848-0.374-0.848-0.95c0-0.82,0.628-1.323,1.623-1.323
		c0.102,0,0.262,0,0.395,0.015c0.028-0.115,0.043-0.157,0.043-0.229c0-0.229-0.189-0.303-0.629-0.303
		c-0.247,0-0.554,0.043-0.76,0.115l-0.117,0.028l-0.058,0.015l0.131-0.777c0.424-0.129,0.731-0.188,1.067-0.188
		c0.79,0,1.2,0.36,1.2,1.022c0,0.173,0.027,0.302-0.045,0.677l-0.189,1.236l-0.03,0.217l-0.029,0.173l-0.015,0.114L90.623,12.761
		L90.623,12.761z"/>
	<path fill="#003473" d="M78.063,10.042c0.175,0,0.425,0.015,0.688,0.059l0.131-0.807c-0.263-0.029-0.614-0.071-0.818-0.071
		c-1.023,0-1.36,0.547-1.36,1.181c0,0.417,0.19,0.72,0.688,0.949c0.365,0.173,0.424,0.2,0.424,0.359
		c0,0.215-0.189,0.345-0.541,0.345c-0.277,0-0.541-0.043-0.833-0.144l-0.103,0.791l0.015,0.015l0.175,0.028
		c0.06,0.015,0.133,0.029,0.234,0.044c0.219,0.014,0.409,0.028,0.526,0.028c1.023,0,1.447-0.389,1.447-1.151
		c0-0.475-0.233-0.764-0.687-0.965c-0.395-0.172-0.439-0.201-0.439-0.359C77.61,10.186,77.786,10.042,78.063,10.042L78.063,10.042z"
		/>
	<path fill="#FFFFFF" d="M88.707,8.372l-0.16,0.922c-0.321-0.158-0.556-0.229-0.819-0.229c-0.688,0-1.169,0.662-1.169,1.598
		c0,0.646,0.321,1.036,0.862,1.036c0.219,0,0.482-0.072,0.775-0.216l-0.162,0.964c-0.336,0.087-0.555,0.13-0.804,0.13
		c-0.994,0-1.608-0.706-1.608-1.843c0-1.511,0.849-2.576,2.063-2.576c0.16,0,0.307,0.016,0.424,0.044l0.365,0.086
		C88.59,8.329,88.62,8.344,88.707,8.372L88.707,8.372z"/>
	<path fill="#FFFFFF" d="M85.753,9.006c-0.029,0-0.059,0-0.088,0c-0.307,0-0.481,0.146-0.759,0.562l0.087-0.532H84.16l-0.571,3.454
		h0.922c0.337-2.115,0.424-2.476,0.862-2.476c0.029,0,0.029,0,0.059,0c0.088-0.418,0.205-0.72,0.352-0.993L85.753,9.006
		L85.753,9.006z"/>
	<path fill="#FFFFFF" d="M80.461,12.445c-0.249,0.087-0.453,0.114-0.658,0.114c-0.468,0-0.731-0.26-0.731-0.764
		c0-0.085,0.015-0.201,0.029-0.302l0.059-0.345l0.044-0.273l0.395-2.36h0.906l-0.102,0.52h0.467l-0.116,0.85h-0.468l-0.249,1.438
		c-0.015,0.058-0.015,0.101-0.015,0.144c0,0.173,0.087,0.245,0.308,0.245c0.102,0,0.189,0,0.248-0.027L80.461,12.445L80.461,12.445z
		"/>
	<path fill="#FFFFFF" d="M76.937,10.128c0,0.433,0.205,0.734,0.688,0.965c0.38,0.172,0.438,0.23,0.438,0.374
		c0,0.215-0.161,0.316-0.526,0.316c-0.277,0-0.525-0.043-0.818-0.129l-0.132,0.791l0.044,0.014l0.161,0.029
		c0.058,0.015,0.132,0.027,0.249,0.027c0.204,0.029,0.38,0.029,0.496,0.029c0.966,0,1.418-0.359,1.418-1.149
		c0-0.477-0.189-0.749-0.643-0.966c-0.395-0.173-0.439-0.216-0.439-0.374c0-0.188,0.162-0.273,0.454-0.273
		c0.176,0,0.424,0.015,0.658,0.044l0.131-0.792c-0.234-0.043-0.599-0.072-0.804-0.072C77.289,8.962,76.922,9.495,76.937,10.128
		L76.937,10.128z"/>
	<path fill="#FFFFFF" d="M95.71,12.488h-0.863l0.044-0.331c-0.248,0.26-0.511,0.375-0.847,0.375c-0.673,0-1.112-0.563-1.112-1.426
		c0-1.15,0.688-2.129,1.491-2.129c0.365,0,0.629,0.157,0.878,0.475l0.205-1.209h0.905L95.71,12.488L95.71,12.488z M94.365,11.681
		c0.424,0,0.717-0.487,0.717-1.164c0-0.446-0.161-0.678-0.482-0.678c-0.409,0-0.716,0.477-0.716,1.151
		C93.883,11.452,94.044,11.681,94.365,11.681L94.365,11.681z"/>
	<path fill="#FFFFFF" d="M83.268,12.416c-0.321,0.102-0.613,0.145-0.95,0.145c-1.023,0-1.55-0.531-1.55-1.555
		c0-1.18,0.673-2.058,1.594-2.058c0.761,0,1.243,0.489,1.243,1.252c0,0.26-0.03,0.503-0.117,0.863h-1.813
		c-0.016,0.043-0.016,0.071-0.016,0.101c0,0.403,0.278,0.605,0.804,0.605c0.337,0,0.63-0.059,0.951-0.218L83.268,12.416
		L83.268,12.416z M82.756,10.359c0-0.072,0-0.13,0-0.173c0-0.287-0.16-0.445-0.438-0.445c-0.293,0-0.497,0.216-0.585,0.618H82.756
		L82.756,10.359z"/>
	<polygon fill="#FFFFFF" points="73.443,12.488 72.536,12.488 73.063,9.221 71.878,12.488 71.25,12.488 71.176,9.25 70.621,12.488 
		69.773,12.488 70.49,8.243 71.805,8.243 71.849,10.877 72.726,8.243 74.16,8.243 	"/>
	<path fill="#FFFFFF" d="M75.709,10.948c-0.088,0-0.132-0.014-0.205-0.014c-0.512,0-0.774,0.188-0.774,0.531
		c0,0.216,0.116,0.347,0.32,0.347C75.431,11.813,75.695,11.467,75.709,10.948L75.709,10.948z M76.381,12.488h-0.76l0.015-0.359
		c-0.233,0.288-0.541,0.417-0.965,0.417c-0.497,0-0.833-0.374-0.833-0.936c0-0.851,0.585-1.339,1.608-1.339
		c0.102,0,0.233,0.016,0.38,0.029c0.029-0.115,0.029-0.157,0.029-0.217c0-0.229-0.161-0.315-0.586-0.315
		c-0.263,0-0.555,0.028-0.76,0.086l-0.131,0.044L74.29,9.912l0.132-0.776c0.453-0.13,0.76-0.173,1.096-0.173
		c0.79,0,1.214,0.347,1.214,1.008c0,0.174-0.015,0.302-0.073,0.69l-0.205,1.223L76.425,12.1l-0.015,0.173l-0.015,0.13L76.381,12.488
		L76.381,12.488z"/>
	<path fill="#FFFFFF" d="M90.184,10.948c-0.103,0-0.146-0.014-0.205-0.014c-0.526,0-0.789,0.188-0.789,0.531
		c0,0.216,0.131,0.347,0.336,0.347C89.891,11.813,90.168,11.467,90.184,10.948L90.184,10.948z M90.856,12.488h-0.76l0.015-0.359
		c-0.233,0.288-0.541,0.417-0.965,0.417c-0.497,0-0.833-0.374-0.833-0.936c0-0.851,0.585-1.339,1.607-1.339
		c0.103,0,0.234,0.016,0.365,0.029c0.03-0.115,0.045-0.157,0.045-0.217c0-0.229-0.162-0.315-0.586-0.315
		c-0.263,0-0.569,0.028-0.774,0.086l-0.117,0.044l-0.086,0.014l0.131-0.776c0.453-0.13,0.759-0.173,1.096-0.173
		c0.79,0,1.199,0.347,1.199,1.008c0,0.174,0,0.302-0.074,0.69l-0.189,1.223L90.9,12.1l-0.028,0.173l-0.015,0.13L90.856,12.488
		L90.856,12.488z"/>
	<path fill="#FFFFFF" d="M93.313,9.006c-0.03,0-0.059,0-0.088,0c-0.307,0-0.483,0.146-0.761,0.562l0.088-0.532h-0.834l-0.556,3.454
		h0.907c0.336-2.115,0.424-2.476,0.862-2.476c0.029,0,0.029,0,0.059,0c0.088-0.418,0.205-0.72,0.352-0.993L93.313,9.006
		L93.313,9.006z"/>
</g>
<g id="Bancontact_Mr_Cash">
	<path fill="#FFFFFF" stroke="#0079BE" stroke-width="0.8" stroke-miterlimit="2.6131" d="M153.334,2.714h10.9
		c1.443,0,1.891,1.056,1.891,1.8v11.56c0,0.718-0.446,1.801-1.891,1.801h-21.802c-1.429,0-1.892-1.083-1.892-1.801V4.513
		c0-0.744,0.463-1.8,1.892-1.8H153.334L153.334,2.714z"/>
	<polygon fill="#0079BE" points="148.206,11.503 152.185,11.503 154.413,9.126 158.407,9.126 155.017,12.895 142.476,12.895 
		142.476,10.378 149.2,10.378 	"/>
	<polygon fill="#FFE237" points="158.407,9.126 154.413,9.126 152.185,11.517 148.179,11.517 151.569,7.748 164.124,7.748 
		164.124,10.251 157.397,10.251 	"/>
	<path fill="#0079BE" d="M162.511,6.82c-0.183,0.113-0.421,0.169-0.646,0.169c-0.643,0-1.219-0.479-1.219-1.141
		c0-0.66,0.52-1.14,1.178-1.14c0.238,0,0.504,0.043,0.687,0.155v0.703c-0.14-0.127-0.351-0.168-0.589-0.168
		c-0.225,0-0.489,0.182-0.489,0.478c0,0.253,0.267,0.408,0.489,0.408c0.252,0,0.406-0.015,0.589-0.155V6.82L162.511,6.82z"/>
	<path fill="#0079BE" d="M164.151,6.286V6.82c-0.574,0.422-1.232,0.068-1.232-0.422V5.414h-0.28V4.768h0.28V4.248l0.783-0.423v0.943
		h0.449v0.59h-0.408v0.914C163.745,6.441,164.024,6.427,164.151,6.286L164.151,6.286z"/>
	<path fill="#0079BE" d="M158.476,5.469l0.127-0.604c0.783-0.266,1.905-0.112,1.905,0.591v1.491h-0.729l-0.029-0.071
		c-0.336,0.211-1.567,0.311-1.399-0.661c0.099-0.576,0.756-0.717,1.162-0.717c0.211,0,0.295-0.196,0.028-0.211
		C159.304,5.274,158.827,5.301,158.476,5.469L158.476,5.469z"/>
	<path fill="#0079BE" d="M145.25,5.469l0.111-0.604c0.784-0.266,1.905-0.112,1.905,0.591v1.491h-0.743l-0.013-0.071
		c-0.323,0.211-1.599,0.311-1.401-0.661c0.098-0.576,0.741-0.717,1.148-0.717c0.209,0,0.293-0.196,0.043-0.211
		C146.063,5.274,145.572,5.301,145.25,5.469L145.25,5.469z"/>
	<path fill="#0079BE" d="M154.231,5.878c0,0.661-0.547,1.125-1.205,1.125s-1.219-0.492-1.219-1.152c0-0.647,0.561-1.152,1.205-1.152
		C153.685,4.696,154.231,5.202,154.231,5.878L154.231,5.878z"/>
	<path fill="#0079BE" d="M158.209,6.286V6.82c-0.588,0.422-1.231,0.068-1.231-0.422V5.414H156.7V4.768h0.278V4.248l0.799-0.423
		v0.943h0.435v0.59h-0.42v0.914C157.79,6.441,158.083,6.427,158.209,6.286L158.209,6.286z"/>
	<path fill="#0079BE" d="M143.946,3.67c0.729,0,1.262,0.973,0.59,1.576c0.84,0.521,0.463,1.673-0.478,1.688h-1.567V3.671
		L143.946,3.67L143.946,3.67z"/>
	<path fill="#0079BE" d="M151.667,6.82c-0.182,0.113-0.393,0.169-0.631,0.169c-0.658,0-1.219-0.479-1.219-1.141
		c0-0.66,0.518-1.14,1.164-1.14c0.238,0,0.504,0.043,0.686,0.155v0.703c-0.153-0.127-0.336-0.168-0.574-0.168
		c-0.237,0-0.504,0.182-0.504,0.478c0,0.253,0.279,0.408,0.504,0.408c0.238,0,0.394-0.015,0.574-0.155V6.82L151.667,6.82z"/>
	<path fill="#0079BE" d="M149.663,5.526v1.42h-0.785V5.721c0-0.436-0.629-0.422-0.629,0v1.225h-0.785V4.765h0.8v0.184
		C148.92,4.458,149.663,4.907,149.663,5.526L149.663,5.526z"/>
	<path fill="#0079BE" d="M156.584,5.526v1.42h-0.785V5.721c0-0.436-0.629-0.422-0.629,0v1.225h-0.784V4.765h0.784v0.184
		C155.842,4.458,156.584,4.907,156.584,5.526L156.584,5.526z"/>
	<path fill="#0079BE" d="M159.542,5.287c0.267,0.014,0.183,0.211-0.028,0.211c-0.406,0-1.063,0.141-1.162,0.717
		c-0.168,0.972,1.063,0.872,1.399,0.661l0.029,0.07h0.729v-1.49c0-0.703-1.122-0.857-1.905-0.591l-0.127,0.604
		C158.827,5.301,159.304,5.274,159.542,5.287L159.542,5.287z"/>
	<path fill="#0079BE" d="M146.301,5.287c0.252,0.014,0.168,0.211-0.043,0.211c-0.406,0-1.051,0.141-1.147,0.717
		c-0.196,0.972,1.078,0.872,1.399,0.661l0.015,0.07h0.743v-1.49c0-0.703-1.122-0.857-1.905-0.591l-0.112,0.604
		C145.572,5.301,146.063,5.274,146.301,5.287L146.301,5.287z"/>
	<path fill="#0079BE" d="M153.013,4.696c-0.646,0-1.205,0.506-1.205,1.152c0,0.661,0.562,1.152,1.219,1.152
		c0.658,0,1.205-0.463,1.205-1.124C154.231,5.202,153.685,4.696,153.013,4.696L153.013,4.696z"/>
	<path fill="#0079BE" d="M157.79,6.272V5.358h0.42V4.767h-0.434V3.825l-0.799,0.422v0.521h-0.279v0.646h0.279v0.984
		c0,0.49,0.645,0.844,1.232,0.422V6.286C158.083,6.427,157.79,6.441,157.79,6.272L157.79,6.272z"/>
	<path fill="#0079BE" d="M142.491,3.67v3.264h1.567c0.938-0.016,1.317-1.168,0.478-1.688c0.672-0.604,0.141-1.576-0.59-1.576
		L142.491,3.67L142.491,3.67z"/>
	<path fill="#0079BE" d="M151.667,6.131c-0.182,0.142-0.336,0.155-0.574,0.155c-0.225,0-0.504-0.155-0.504-0.408
		c0-0.296,0.267-0.478,0.504-0.478c0.238,0,0.421,0.041,0.574,0.168V4.865c-0.182-0.112-0.446-0.154-0.686-0.154
		c-0.646,0-1.164,0.479-1.164,1.14c0,0.66,0.561,1.14,1.219,1.14c0.238,0,0.449-0.056,0.631-0.169V6.131L151.667,6.131z"/>
	<path fill="#0079BE" d="M148.263,4.949V4.767h-0.8v2.18h0.785V5.721c0-0.422,0.631-0.436,0.631,0v1.226h0.783v-1.42
		C149.663,4.907,148.92,4.458,148.263,4.949L148.263,4.949z"/>
	<path fill="#0079BE" d="M155.17,4.949V4.767h-0.785v2.18h0.785V5.721c0-0.422,0.629-0.436,0.629,0v1.226h0.785v-1.42
		C156.584,4.907,155.842,4.458,155.17,4.949L155.17,4.949z"/>
	<path fill="#0079BE" d="M162.511,6.131c-0.183,0.142-0.337,0.155-0.589,0.155c-0.225,0-0.489-0.155-0.489-0.408
		c0-0.296,0.267-0.478,0.489-0.478c0.238,0,0.449,0.041,0.589,0.168V4.865c-0.183-0.112-0.447-0.154-0.687-0.154
		c-0.658,0-1.178,0.479-1.178,1.14c0,0.66,0.576,1.14,1.219,1.14c0.225,0,0.463-0.056,0.646-0.169V6.131L162.511,6.131z"/>
	<path fill="#0079BE" d="M163.745,6.272V5.358h0.406V4.767h-0.447V3.825l-0.785,0.422v0.521h-0.28v0.646h0.28v0.984
		c0,0.49,0.658,0.844,1.232,0.422V6.286C164.024,6.427,163.745,6.441,163.745,6.272L163.745,6.272z"/>
	<path fill="#0079BE" d="M153.474,5.878c0,0.239-0.209,0.437-0.447,0.437c-0.237,0-0.437-0.197-0.437-0.464
		c0-0.281,0.197-0.437,0.437-0.437S153.474,5.568,153.474,5.878L153.474,5.878z"/>
	<path fill="#0079BE" d="M143.386,5.625h0.351c0.436,0,0.477,0.661,0.016,0.661h-0.365L143.386,5.625L143.386,5.625z"/>
	<path fill="#0079BE" d="M146.482,5.99v0.267c0,0.297-0.588,0.381-0.588,0.071C145.895,6.047,146.314,5.962,146.482,5.99
		L146.482,5.99z"/>
	<path fill="#0079BE" d="M159.724,5.99v0.267c0,0.297-0.574,0.381-0.574,0.071C159.149,6.047,159.569,5.962,159.724,5.99
		L159.724,5.99z"/>
	<path fill="#0079BE" d="M143.736,4.331c0.406,0.184,0.267,0.619,0.015,0.619h-0.365V4.331
		C143.386,4.317,143.638,4.302,143.736,4.331L143.736,4.331z"/>
	<path fill="#FFFFFF" d="M153.026,5.414c-0.238,0-0.434,0.154-0.434,0.437c0,0.268,0.195,0.465,0.434,0.465
		c0.239,0,0.447-0.197,0.447-0.438C153.474,5.568,153.265,5.414,153.026,5.414L153.026,5.414z"/>
	<path fill="#FFFFFF" d="M159.149,6.328c0,0.31,0.574,0.225,0.574-0.071V5.99C159.569,5.962,159.149,6.047,159.149,6.328
		L159.149,6.328z"/>
	<path fill="#FFFFFF" d="M143.386,4.331V4.95h0.364c0.252,0,0.393-0.436-0.015-0.619C143.638,4.302,143.386,4.317,143.386,4.331
		L143.386,4.331z"/>
	<path fill="#FFFFFF" d="M145.895,6.328c0,0.31,0.588,0.225,0.588-0.071V5.99C146.314,5.962,145.895,6.047,145.895,6.328
		L145.895,6.328z"/>
	<path fill="#FFFFFF" d="M143.386,6.286h0.364c0.463,0,0.42-0.661-0.015-0.661h-0.351L143.386,6.286L143.386,6.286z"/>
	<path fill="#0079BE" d="M152.228,15.834c0-0.759-0.31-1.251-1.078-1.251c-0.729,0-1.164,0.548-1.164,1.167
		c0,0.676,0.521,1.168,1.248,1.168c0.632,0,0.951-0.254,0.951-0.254v-0.646c-0.267,0.141-0.562,0.226-0.771,0.226
		c-0.42,0-0.645-0.113-0.645-0.408L152.228,15.834L152.228,15.834z"/>
	<polygon fill="#0079BE" points="144.002,15.947 144.647,15.02 144.647,16.861 145.487,16.861 145.502,13.669 144.647,13.669 
		144.002,14.626 143.345,13.669 142.491,13.669 142.504,16.861 143.345,16.861 143.345,15.02 	"/>
	<path fill="#0079BE" d="M153.138,15.582c0.084-0.183,0.269-0.338,0.506-0.338c0.125,0,0.267,0.057,0.362,0.126v-0.688
		c-0.069-0.085-0.182-0.111-0.293-0.111c-0.196,0-0.463,0.111-0.575,0.253v-0.227h-0.757v2.266h0.757V15.582L153.138,15.582z"/>
	<path fill="#0079BE" d="M146.693,16.72c0.267,0.113,0.588,0.154,0.798,0.154c0.814,0,1.051-0.421,1.051-0.772
		c0-0.407-0.42-0.634-0.797-0.688c-0.058,0-0.211-0.043-0.211-0.113c0-0.056,0.043-0.126,0.225-0.126
		c0.152,0,0.435,0.057,0.574,0.126l-0.026-0.59c-0.211-0.07-0.507-0.127-0.729-0.127c-0.463,0-0.869,0.282-0.869,0.731
		c0,0.352,0.254,0.533,0.66,0.619c0.168,0.014,0.32,0.084,0.32,0.168c0,0.112-0.111,0.142-0.225,0.142
		c-0.098,0-0.351,0.028-0.771-0.142V16.72L146.693,16.72z"/>
	<path fill="#0079BE" d="M149.565,16.173v-0.929h0.434v-0.604h-0.461v-0.971l-0.799,0.422v0.55h-0.281v0.646h0.281V16.3
		c0,0.506,0.658,0.844,1.26,0.421v-0.548C149.874,16.299,149.565,16.327,149.565,16.173L149.565,16.173z"/>
	<polygon fill="#0079BE" points="146.553,16.833 146.553,14.639 145.711,14.639 145.711,16.833 	"/>
	<path fill="#0079BE" d="M146.133,14.569c0.252,0,0.462-0.211,0.462-0.464c0-0.239-0.21-0.438-0.462-0.438
		c-0.238,0-0.436,0.197-0.436,0.438C145.698,14.359,145.895,14.569,146.133,14.569L146.133,14.569z"/>
	<path fill="#0079BE" d="M159.948,16.72c0.266,0.113,0.588,0.154,0.799,0.154c0.812,0,1.064-0.421,1.064-0.772
		c0-0.407-0.422-0.634-0.813-0.688c-0.058,0-0.211-0.043-0.211-0.113c0-0.056,0.043-0.126,0.237-0.126
		c0.154,0,0.42,0.057,0.574,0.126l-0.043-0.59c-0.209-0.07-0.505-0.127-0.728-0.127c-0.463,0-0.869,0.282-0.869,0.731
		c0,0.352,0.252,0.533,0.658,0.619c0.168,0.014,0.322,0.084,0.322,0.168c0,0.112-0.111,0.142-0.225,0.142
		c-0.098,0-0.35,0.028-0.771-0.142v0.618H159.948z"/>
	<path fill="#0079BE" d="M157.481,15.934c-0.266,0.195-0.477,0.238-0.826,0.238c-0.533,0-1.01-0.437-1.01-0.886
		c0-0.493,0.268-0.957,1.01-0.957c0.336,0,0.615,0.057,0.826,0.253v-0.76c-0.266-0.154-0.631-0.196-0.953-0.196
		c-0.965,0-1.709,0.688-1.709,1.631c0,0.93,0.813,1.631,1.766,1.631c0.322,0,0.631-0.068,0.896-0.225V15.934L157.481,15.934z"/>
	<path fill="#0079BE" d="M158.827,15.131c0.266,0.016,0.182,0.227-0.027,0.227c-0.422,0-1.094,0.141-1.178,0.717
		c-0.182,0.985,1.078,0.901,1.414,0.689l0.029,0.057h0.756v-1.52c0-0.718-1.148-0.857-1.961-0.591l-0.113,0.604
		C158.099,15.146,158.588,15.117,158.827,15.131L158.827,15.131z"/>
	<path fill="#0079BE" d="M162.708,14.809v-1.141h-0.785v3.192h0.785v-1.252c0-0.422,0.646-0.437,0.646,0v1.252h0.799v-1.448
		C164.151,14.767,163.394,14.316,162.708,14.809L162.708,14.809z"/>
	<path fill="#FFFFFF" d="M150.741,15.4c0.043-0.212,0.211-0.282,0.365-0.282s0.352,0.07,0.352,0.282H150.741L150.741,15.4z"/>
	<path fill="#FFFFFF" d="M159.008,15.848v0.269c0,0.31-0.588,0.38-0.588,0.07C158.42,15.905,158.854,15.834,159.008,15.848
		L159.008,15.848z"/>
</g>
<g>
	<g>
		<g>
			<defs>
				<rect id="SVGID_1_" x="170.211" y="1.195" width="18.045" height="17.846"/>
			</defs>
			<clipPath id="SVGID_2_">
				<use xlink:href="#SVGID_1_"  overflow="visible"/>
			</clipPath>
			<path clip-path="url(#SVGID_2_)" fill="#A6ACB2" d="M174.179,1.195c2.182,0,5.616,1.388,7.932,2.645
				c2.576,1.389,6.146,4.295,6.146,6.278c0,2.115-3.7,4.891-6.146,6.279c-2.248,1.257-5.618,2.71-7.864,2.71
				c-0.597,0-1.06-0.131-1.455-0.331c-1.785-0.991-2.578-5.155-2.578-8.592c0-1.719,0.197-3.636,0.596-5.155
				c0.463-1.852,1.123-3.041,1.982-3.503C173.12,1.26,173.584,1.195,174.179,1.195"/>
		</g>
	</g>
	<g>
		<g>
			<g>
				<defs>
					<path id="SVGID_3_" d="M173.12,2.052c-1.453,0.794-2.313,4.893-2.313,8.064c0,3.239,0.793,7.271,2.313,8.063
						c1.389,0.795,5.156-0.396,8.726-2.313c3.041-1.652,5.815-4.163,5.815-5.75c0-1.521-2.842-4.097-5.815-5.75
						c-2.775-1.521-5.816-2.512-7.601-2.512C173.782,1.856,173.383,1.922,173.12,2.052"/>
				</defs>
				<clipPath id="SVGID_4_">
					<use xlink:href="#SVGID_3_"  overflow="visible"/>
				</clipPath>
				
					<radialGradient id="SVGID_5_" cx="767.7788" cy="-406.6389" r="0.5503" gradientTransform="matrix(21.4923 0 0 21.4923 -16326.5547 8747.6729)" gradientUnits="userSpaceOnUse">
					<stop  offset="0" style="stop-color:#FFC52A"/>
					<stop  offset="1" style="stop-color:#F37023"/>
				</radialGradient>
				<path clip-path="url(#SVGID_4_)" fill="url(#SVGID_5_)" d="M170.808,1.856h16.854v17.12h-16.854V1.856z"/>
			</g>
		</g>
	</g>
	<g>
		<g>
			<path fill="#FFFFFF" d="M183.795,11.674c-0.01,0-0.016-0.007-0.016-0.015V10.14c0-0.336-0.115-0.479-0.383-0.479
				c-0.096,0-0.213,0.036-0.328,0.101c-0.113,0.066-0.203,0.121-0.234,0.143c-0.01,0.005-0.02,0.021-0.02,0.032v1.725
				c0,0.008-0.008,0.015-0.016,0.015h-0.678c-0.009,0-0.015-0.007-0.015-0.015V9.219c0-0.041,0.031-0.071,0.072-0.071h0.618
				c0.009,0,0.017,0.007,0.017,0.016v0.191c0,0.012,0.011,0.021,0.021,0.021c0.006,0,0.011-0.003,0.015-0.004l0.021-0.016
				c0.073-0.059,0.19-0.124,0.27-0.154c0.17-0.064,0.352-0.102,0.502-0.102c0.553,0,0.844,0.317,0.844,0.919l0.002,1.642
				c0,0.009-0.008,0.015-0.018,0.015h-0.674"/>
			<path fill="#FFFFFF" d="M185.045,11.674c-0.01,0-0.016-0.007-0.016-0.015l-0.002-3.739c0-0.013,0.004-0.018,0.021-0.018
				c0.043,0,0.42,0.236,0.543,0.372c0.09,0.1,0.141,0.234,0.141,0.372l0.002,3.013c0,0.008-0.008,0.015-0.016,0.015H185.045"/>
		</g>
		<g>
			<path fill="#292E86" d="M177.551,10.409c0,0.894-0.59,1.321-1.317,1.321c-0.729,0-1.321-0.429-1.321-1.321
				c0-0.914,0.592-1.32,1.321-1.32C176.961,9.089,177.551,9.495,177.551,10.409 M176.804,10.409c0-0.482-0.244-0.693-0.57-0.693
				c-0.328,0-0.571,0.211-0.571,0.693c0,0.444,0.243,0.692,0.571,0.692C176.56,11.102,176.804,10.854,176.804,10.409z"/>
			<path fill="#292E86" d="M180.991,8.451c0-0.021-0.008-0.026-0.029-0.026c-0.049,0-0.43,0.244-0.547,0.374
				c-0.09,0.099-0.146,0.234-0.146,0.378v1.624c0,0.705,0.405,0.927,0.844,0.927c0.253,0,0.423-0.038,0.522-0.093
				c0.021-0.012,0.041-0.036,0.041-0.069v-0.461c0-0.015-0.012-0.024-0.024-0.024c-0.024,0-0.19,0.064-0.297,0.064
				c-0.228,0-0.362-0.106-0.362-0.466V9.746c0-0.014,0.012-0.024,0.024-0.024h0.61c0.015,0,0.023-0.012,0.023-0.024h0.002
				l-0.002-0.48c0-0.044-0.035-0.08-0.078-0.08h-0.557c-0.014,0-0.025-0.011-0.025-0.023V8.451"/>
			<path fill="#292E86" d="M172.157,9.218c0-0.045,0.035-0.082,0.08-0.082h0.965c0.945,0,1.437,0.568,1.437,1.304
				c0,0.734-0.55,1.245-1.451,1.245h-0.281c-0.016,0-0.024,0.012-0.024,0.024v1.19c0,0.021-0.008,0.026-0.029,0.026
				c-0.051,0-0.432-0.244-0.549-0.375c-0.088-0.098-0.145-0.233-0.145-0.379V9.218 M173.922,10.402c0-0.313-0.202-0.605-0.735-0.605
				h-0.28c-0.017,0-0.025,0.012-0.025,0.024v1.176c0,0.014,0.01,0.024,0.025,0.024h0.297
				C173.836,11.022,173.922,10.58,173.922,10.402z"/>
			<path fill="#292E86" d="M179.588,10.299c-0.147-0.099-0.332-0.139-0.508-0.178c-0.031-0.007-0.147-0.033-0.176-0.039
				c-0.215-0.048-0.385-0.087-0.385-0.226c0-0.12,0.117-0.198,0.295-0.198c0.227,0,0.543,0.045,0.887,0.174
				c0.019,0.007,0.041-0.003,0.043-0.026v-0.5c0-0.032-0.021-0.066-0.059-0.078c-0.121-0.038-0.479-0.139-0.783-0.139
				c-0.336,0-0.617,0.074-0.811,0.218c-0.195,0.144-0.299,0.351-0.299,0.6c0,0.561,0.459,0.667,0.895,0.771
				c0.066,0.017,0.057,0.014,0.08,0.02c0.199,0.043,0.404,0.089,0.404,0.252c0,0.049-0.019,0.089-0.055,0.127
				c-0.056,0.055-0.142,0.078-0.306,0.078c-0.276,0-0.797-0.129-0.957-0.181c-0.002-0.001-0.008-0.002-0.012-0.002
				c-0.019,0-0.031,0.015-0.031,0.029v0.5c0,0.035,0.022,0.066,0.058,0.078c0.004,0.002,0.459,0.152,0.889,0.152
				c0.752,0,1.139-0.294,1.139-0.83C179.897,10.63,179.795,10.434,179.588,10.299"/>
		</g>
		<path fill="#FFFFFF" d="M175.118,8.485c-0.061,0-0.086-0.031-0.086-0.103V8.11c0-0.063,0.053-0.114,0.113-0.114h2.176
			c0.063,0,0.115,0.052,0.115,0.114v0.272c0,0.07-0.025,0.103-0.086,0.103H175.118 M177.084,7.718c-0.022,0-0.039-0.007-0.049-0.018
			c-0.008-0.013-0.008-0.034,0-0.061c0.072-0.226,0.316-0.906,0.318-0.913c0.016-0.045-0.002-0.105-0.047-0.122l-0.123-0.041
			c-0.01-0.002-0.018-0.003-0.025-0.003c-0.022,0-0.037,0.012-0.043,0.022c-0.051,0.112-0.078,0.191-0.119,0.324
			c-0.006,0.021-0.022,0.034-0.055,0.034h-0.24c-0.018,0-0.031-0.006-0.037-0.015c-0.008-0.009-0.008-0.022-0.004-0.041
			c0.063-0.222,0.125-0.398,0.215-0.595c0.017-0.034,0.054-0.092,0.136-0.092c0.014,0,0.028,0.003,0.047,0.007h0.002
			c0.08,0.021,0.174,0.04,0.271,0.07c0.076,0.021,0.153,0.051,0.235,0.08c0.246,0.091,0.235,0.268,0.188,0.445
			c-0.029,0.108-0.172,0.511-0.258,0.748c-0.021,0.053-0.033,0.095-0.045,0.123c-0.011,0.028-0.031,0.042-0.07,0.042h-0.297V7.718z
			 M176.079,7.718c-0.053,0-0.057-0.061-0.057-0.062c0-0.014-0.018-1.286-0.02-1.459c0-0.013,0.004-0.042,0.022-0.061
			c0.009-0.011,0.021-0.015,0.037-0.015c0.022-0.002,0.092-0.005,0.168-0.005c0.08,0,0.146,0.003,0.172,0.005
			c0.017,0,0.027,0.004,0.037,0.015c0.019,0.018,0.021,0.048,0.021,0.061c-0.002,0.173-0.018,1.445-0.018,1.459
			c0,0-0.004,0.062-0.059,0.062H176.079z M175.084,7.718c-0.037,0-0.061-0.014-0.069-0.042c-0.013-0.028-0.024-0.07-0.043-0.123
			c-0.089-0.237-0.229-0.64-0.261-0.748c-0.047-0.179-0.059-0.354,0.188-0.445c0.082-0.029,0.162-0.059,0.236-0.08
			c0.098-0.03,0.188-0.051,0.271-0.07h0.002c0.016-0.004,0.031-0.007,0.047-0.007c0.082,0,0.119,0.058,0.135,0.092
			c0.086,0.195,0.15,0.373,0.214,0.595c0.004,0.019,0.004,0.032-0.005,0.041c-0.006,0.01-0.02,0.015-0.036,0.015h-0.24
			c-0.03,0-0.049-0.013-0.058-0.034c-0.039-0.133-0.065-0.213-0.116-0.324c-0.007-0.012-0.021-0.022-0.043-0.022
			c-0.009,0-0.017,0.001-0.022,0.003l-0.123,0.041c-0.048,0.017-0.064,0.078-0.05,0.122c0.004,0.007,0.248,0.688,0.318,0.914
			c0.01,0.024,0.008,0.047,0,0.06c-0.011,0.011-0.025,0.018-0.048,0.018h-0.297V7.718z M176.231,5.861
			c-0.012,0-0.025-0.006-0.041-0.019c-0.102-0.08-0.195-0.174-0.275-0.277c-0.01-0.014-0.026-0.035-0.002-0.065
			c0.086-0.109,0.185-0.207,0.293-0.289c0.015-0.008,0.021-0.01,0.025-0.01c0.008,0,0.016,0.002,0.029,0.01
			c0.107,0.083,0.207,0.18,0.291,0.289c0.023,0.026,0.014,0.049,0,0.065c-0.082,0.104-0.176,0.197-0.275,0.277
			c-0.016,0.013-0.029,0.019-0.043,0.019H176.231z"/>
	</g>
</g>
</svg>
