<?xml version="1.0" encoding="utf-8"?>
<!-- Generator: Adobe Illustrator 16.0.0, SVG Export Plug-In . SVG Version: 6.00 Build 0)  -->
<!DOCTYPE svg PUBLIC "-//W3C//DTD SVG 1.1//EN" "http://www.w3.org/Graphics/SVG/1.1/DTD/svg11.dtd">
<svg version="1.1" id="Layer_1" xmlns="http://www.w3.org/2000/svg" xmlns:xlink="http://www.w3.org/1999/xlink" x="0px" y="0px"
	 width="214.083px" height="20.107px" viewBox="0.167 11.893 214.083 20.107" enable-background="new 0.167 11.893 214.083 20.107"
	 xml:space="preserve">
<g>
	<path fill="#0058A0" d="M112.929,27.553l1.863-10.794h2.891l-1.799,10.794 M126.55,17.016c-0.579-0.193-1.479-0.45-2.635-0.45
		c-2.891,0-4.947,1.478-4.947,3.534c0,1.541,1.478,2.441,2.57,2.955c1.156,0.514,1.542,0.835,1.542,1.349
		c0,0.707-0.899,1.029-1.735,1.029c-1.155,0-1.799-0.193-2.763-0.578l-0.385-0.193l-0.386,2.44c0.707,0.322,1.927,0.579,3.276,0.579
		c3.084,0,5.076-1.414,5.141-3.662c0-1.221-0.771-2.185-2.441-2.956c-1.028-0.514-1.671-0.835-1.671-1.349
		c0-0.449,0.514-0.899,1.671-0.899c0.963,0,1.67,0.192,2.184,0.386l0.258,0.129L126.55,17.016L126.55,17.016z M134.066,16.759
		h-2.248c-0.707,0-1.222,0.192-1.543,0.898l-4.368,9.896h3.084c0,0,0.514-1.35,0.643-1.606h3.79
		c0.064,0.385,0.386,1.606,0.386,1.606h2.698L134.066,16.759z M130.404,23.696c0.257-0.642,1.156-3.019,1.156-3.019
		s0.258-0.643,0.386-1.028l0.192,0.899c0,0,0.578,2.57,0.707,3.084h-2.441V23.696z M110.487,16.759l-2.892,7.324l-0.321-1.478
		c-0.514-1.735-2.185-3.599-4.048-4.498l2.635,9.445h3.084l4.625-10.73h-3.083V16.759z"/>
	<path fill="#FAA61A" d="M104.962,16.759h-4.754l-0.064,0.257c3.662,0.899,6.104,3.02,7.131,5.653l-1.027-4.947
		C106.118,17.016,105.604,16.759,104.962,16.759z"/>
</g>
<g>
	<path fill="#010101" d="M2.467,23.055h2.827v4.689H2.467V23.055z M5.486,20.741c0,0.899-0.707,1.606-1.606,1.606
		s-1.606-0.707-1.606-1.606c0-0.898,0.707-1.605,1.606-1.605S5.486,19.843,5.486,20.741z"/>
	<path fill="#010101" d="M10.69,14.382H0.475v15.482H10.69c2.248-0.064,3.982-0.578,5.268-1.67c1.542-1.285,2.313-3.341,2.313-6.104
		c0-1.285-0.193-2.506-0.578-3.47c-0.386-0.964-0.964-1.798-1.671-2.441C14.609,15.024,12.811,14.382,10.69,14.382L10.69,14.382z
		 M10.497,15.41c1.991,0,3.599,0.514,4.754,1.542c1.286,1.156,1.928,2.892,1.928,5.14c0,4.497-2.184,6.682-6.682,6.682H1.502V15.345
		C2.402,15.41,10.112,15.41,10.497,15.41z"/>
	<path fill="#CC1B69" d="M10.177,27.809H6.578V16.63h3.599h-0.129c3.02,0,6.232,1.221,6.232,5.589c0,4.626-3.213,5.525-6.232,5.525
		h0.129V27.809z"/>
	<g>
		<path fill="#FFFFFF" d="M6,19.521h0.963c0.258,0,0.387,0,0.515,0.064c0.129,0.064,0.321,0.129,0.386,0.258
			c0.129,0.128,0.193,0.256,0.257,0.449c0.064,0.192,0.064,0.385,0.064,0.643c0,0.192,0,0.385-0.064,0.577
			c-0.063,0.193-0.192,0.387-0.257,0.451c-0.129,0.063-0.193,0.191-0.386,0.191c-0.128,0.064-0.257,0.064-0.45,0.064H6V19.521z
			 M6.514,19.971v1.799h0.707c0.064,0,0.193-0.064,0.193-0.129s0.128-0.129,0.128-0.257s0.064-0.257,0.064-0.514
			c0-0.193,0-0.386-0.064-0.449c-0.064-0.129-0.064-0.193-0.128-0.258c-0.064-0.064-0.129-0.128-0.258-0.128H6.707L6.514,19.971z"/>
		<path fill="#FFFFFF" d="M5.871,19.456v2.827h1.092c0.193,0,0.387,0,0.515-0.064c0.192-0.064,0.321-0.128,0.386-0.256
			c0.129-0.129,0.257-0.322,0.321-0.515s0.064-0.386,0.064-0.578c0-0.257-0.064-0.449-0.064-0.643
			c-0.064-0.192-0.128-0.32-0.257-0.449s-0.258-0.193-0.45-0.258c-0.128-0.064-0.321-0.064-0.515-0.064H5.871z M6.963,19.585
			c0.193,0,0.387,0,0.515,0.064c0.129,0.064,0.257,0.129,0.386,0.258c0.129,0.128,0.193,0.256,0.257,0.385
			c0.064,0.192,0.064,0.385,0.064,0.578c0,0.192,0,0.386-0.064,0.578c-0.063,0.192-0.128,0.321-0.257,0.45
			c-0.064,0.064-0.193,0.128-0.321,0.192c-0.128,0.063-0.257,0.063-0.45,0.063H6.128v-2.505C6.192,19.585,6.963,19.585,6.963,19.585
			z"/>
		<path fill="#FFFFFF" d="M6.449,19.907v1.927h0.771c0.129,0,0.193-0.064,0.257-0.129c0.064-0.064,0.129-0.129,0.192-0.321
			c0.064-0.128,0.064-0.321,0.064-0.514c0-0.193,0-0.386-0.064-0.514c-0.063-0.129-0.128-0.193-0.192-0.321
			c-0.063-0.064-0.192-0.128-0.257-0.128H6.449z M6.771,20.035h0.45c0.064,0,0.193,0.063,0.193,0.128s0.128,0.129,0.128,0.258
			c0.064,0.128,0.064,0.256,0.064,0.449c0,0.192,0,0.386-0.064,0.449c-0.064,0.129-0.064,0.192-0.128,0.257
			c-0.064,0.064-0.129,0.064-0.193,0.129H6.899H6.578v-1.606C6.643,20.035,6.771,20.035,6.771,20.035z M8.827,22.219v-2.698h1.992
			v0.45H9.341v0.578h1.35v0.449h-1.35v0.707h1.479v0.514H8.827z"/>
		<path fill="#FFFFFF" d="M8.763,19.456v2.827h2.185v-0.578H9.47v-0.578h1.35v-0.578H9.47v-0.45h1.478v-0.578L8.763,19.456z
			 M10.755,19.585v0.322H9.276v0.706h1.35v0.321h-1.35v0.899h1.479v0.32H8.891v-2.505C9.02,19.585,10.626,19.585,10.755,19.585z"/>
		<g>
			<path fill="#FFFFFF" d="M13.902,22.219h-0.578l-0.257-0.643h-1.093l-0.192,0.643h-0.578l1.028-2.698h0.578L13.902,22.219z
				 M12.875,21.127l-0.387-0.964l-0.385,0.964H12.875z"/>
			<path fill="#FFFFFF" d="M12.168,19.456l-1.093,2.827h0.707c0,0,0.192-0.514,0.192-0.578h0.964
				c0.064,0.064,0.257,0.578,0.257,0.578h0.771l-1.156-2.827H12.168z M12.746,19.585c0.064,0.064,0.964,2.378,1.028,2.506h-0.45
				c-0.064-0.064-0.257-0.579-0.257-0.579H11.91c0,0-0.192,0.515-0.192,0.579h-0.385c0.063-0.192,0.963-2.441,0.963-2.506H12.746z"
				/>
			<path fill="#FFFFFF" d="M12.039,21.191h0.964l-0.45-1.284L12.039,21.191z M12.553,20.356c0.064,0.192,0.193,0.578,0.258,0.706
				h-0.515C12.296,20.935,12.425,20.549,12.553,20.356z"/>
		</g>
		<g>
			<path fill="#FFFFFF" d="M14.353,22.219v-2.634h0.514v2.185h1.35v0.449H14.353z"/>
			<path fill="#FFFFFF" d="M14.288,19.456v2.827h2.057v-0.578h-1.35v-2.185h-0.707V19.456z M14.802,19.585v2.185h1.35v0.321h-1.735
				v-2.506H14.802z"/>
		</g>
	</g>
</g>
<g>
	<path fill="#253B80" d="M36.215,18.99h-2.568c-0.176,0-0.325,0.128-0.353,0.302l-1.039,6.586c-0.021,0.131,0.08,0.248,0.212,0.248
		h1.227c0.176,0,0.325-0.128,0.353-0.302l0.28-1.776c0.027-0.174,0.177-0.302,0.353-0.302h0.813c1.692,0,2.669-0.818,2.924-2.441
		c0.115-0.71,0.005-1.268-0.327-1.658C37.723,19.218,37.075,18.99,36.215,18.99z M36.512,21.396
		c-0.141,0.921-0.845,0.921-1.525,0.921h-0.388l0.271-1.721c0.017-0.104,0.106-0.181,0.212-0.181h0.178c0.464,0,0.901,0,1.127,0.265
		C36.521,20.838,36.563,21.072,36.512,21.396z"/>
	<path fill="#253B80" d="M43.895,21.366h-1.23c-0.105,0-0.195,0.077-0.212,0.182l-0.055,0.344l-0.086-0.125
		c-0.266-0.387-0.859-0.516-1.452-0.516c-1.359,0-2.521,1.029-2.747,2.474c-0.117,0.72,0.05,1.409,0.459,1.89
		c0.375,0.442,0.911,0.625,1.549,0.625c1.096,0,1.703-0.703,1.703-0.703l-0.056,0.342c-0.021,0.131,0.08,0.248,0.212,0.248h1.107
		c0.177,0,0.325-0.129,0.353-0.303l0.665-4.21C44.126,21.484,44.025,21.366,43.895,21.366z M42.179,23.761
		c-0.118,0.703-0.676,1.175-1.388,1.175c-0.357,0-0.643-0.115-0.826-0.332c-0.181-0.216-0.25-0.521-0.192-0.864
		c0.111-0.697,0.678-1.184,1.378-1.184c0.35,0,0.634,0.115,0.82,0.335C42.159,23.111,42.232,23.421,42.179,23.761z"/>
	<path fill="#253B80" d="M50.445,21.366h-1.236c-0.117,0-0.229,0.059-0.296,0.157l-1.705,2.511l-0.722-2.413
		c-0.046-0.151-0.186-0.255-0.343-0.255h-1.215c-0.147,0-0.25,0.145-0.203,0.284l1.361,3.995l-1.28,1.807
		c-0.101,0.143,0.001,0.338,0.175,0.338h1.234c0.117,0,0.228-0.057,0.294-0.152l4.111-5.935
		C50.72,21.561,50.618,21.366,50.445,21.366z"/>
	<path fill="#179BD7" d="M54.538,18.99h-2.569c-0.175,0-0.325,0.128-0.353,0.302l-1.038,6.586c-0.021,0.131,0.079,0.248,0.21,0.248
		h1.318c0.123,0,0.228-0.09,0.247-0.211l0.295-1.867c0.026-0.174,0.177-0.302,0.352-0.302h0.813c1.692,0,2.669-0.818,2.924-2.441
		c0.115-0.71,0.004-1.268-0.328-1.658C56.045,19.218,55.397,18.99,54.538,18.99z M54.834,21.396
		c-0.14,0.921-0.844,0.921-1.525,0.921h-0.388l0.272-1.721c0.017-0.104,0.105-0.181,0.211-0.181h0.178c0.464,0,0.901,0,1.128,0.265
		C54.845,20.838,54.886,21.072,54.834,21.396z"/>
	<path fill="#179BD7" d="M62.216,21.366h-1.229c-0.105,0-0.195,0.077-0.211,0.182l-0.055,0.344l-0.086-0.125
		c-0.267-0.387-0.859-0.516-1.452-0.516c-1.359,0-2.521,1.029-2.746,2.474c-0.117,0.72,0.049,1.409,0.458,1.89
		c0.375,0.442,0.911,0.625,1.55,0.625c1.095,0,1.702-0.703,1.702-0.703l-0.055,0.342c-0.021,0.131,0.079,0.248,0.211,0.248h1.108
		c0.175,0,0.324-0.129,0.353-0.303l0.665-4.21C62.448,21.484,62.348,21.366,62.216,21.366z M60.502,23.761
		c-0.119,0.703-0.677,1.175-1.389,1.175c-0.356,0-0.643-0.115-0.826-0.332c-0.182-0.216-0.25-0.521-0.192-0.864
		c0.111-0.697,0.678-1.184,1.378-1.184c0.35,0,0.634,0.115,0.82,0.335C60.481,23.111,60.556,23.421,60.502,23.761z"/>
	<path fill="#179BD7" d="M63.666,19.171l-1.054,6.707c-0.021,0.131,0.08,0.248,0.211,0.248h1.06c0.177,0,0.326-0.128,0.353-0.302
		l1.04-6.587c0.021-0.13-0.08-0.247-0.211-0.247h-1.187C63.772,18.99,63.683,19.067,63.666,19.171z"/>
	<path fill="#253B80" d="M24.453,27.406l0.196-1.248l-0.438-0.01h-2.09l1.452-9.208c0.004-0.027,0.02-0.053,0.04-0.072
		c0.021-0.018,0.049-0.028,0.078-0.028h3.522c1.17,0,1.978,0.243,2.398,0.724c0.198,0.226,0.323,0.461,0.385,0.721
		c0.063,0.271,0.064,0.597,0.002,0.993l-0.004,0.028v0.254l0.197,0.112c0.166,0.088,0.299,0.189,0.4,0.305
		c0.169,0.193,0.278,0.438,0.324,0.728c0.048,0.299,0.032,0.654-0.046,1.057c-0.091,0.463-0.236,0.866-0.433,1.196
		c-0.182,0.304-0.412,0.556-0.686,0.751c-0.262,0.186-0.572,0.326-0.924,0.416c-0.34,0.089-0.729,0.133-1.153,0.133h-0.274
		c-0.196,0-0.387,0.071-0.536,0.197c-0.149,0.13-0.249,0.307-0.279,0.5l-0.021,0.112l-0.348,2.199l-0.016,0.08
		c-0.004,0.025-0.011,0.038-0.021,0.047c-0.01,0.008-0.022,0.014-0.036,0.014H24.453z"/>
	<path fill="#179BD7" d="M30.381,19.335L30.381,19.335L30.381,19.335c-0.011,0.067-0.023,0.136-0.036,0.207
		c-0.465,2.386-2.055,3.209-4.085,3.209h-1.033c-0.248,0-0.458,0.181-0.496,0.426l0,0l0,0l-0.529,3.356l-0.15,0.951
		c-0.024,0.161,0.099,0.306,0.262,0.306h1.833c0.217,0,0.401-0.157,0.436-0.372l0.019-0.093l0.345-2.19l0.022-0.12
		c0.033-0.215,0.219-0.373,0.436-0.373h0.274c1.776,0,3.167-0.721,3.573-2.808c0.169-0.872,0.082-1.6-0.367-2.112
		C30.746,19.567,30.578,19.439,30.381,19.335z"/>
	<path fill="#222D65" d="M29.895,19.142c-0.071-0.021-0.145-0.04-0.22-0.057s-0.152-0.031-0.232-0.044
		c-0.278-0.045-0.584-0.066-0.911-0.066H25.77c-0.067,0-0.133,0.016-0.19,0.043c-0.127,0.062-0.222,0.182-0.244,0.329l-0.588,3.722
		l-0.017,0.108c0.038-0.245,0.248-0.426,0.496-0.426h1.033c2.03,0,3.62-0.824,4.085-3.209c0.014-0.071,0.025-0.14,0.036-0.207
		c-0.118-0.063-0.245-0.115-0.382-0.161C29.965,19.163,29.93,19.152,29.895,19.142z"/>
	<path fill="#253B80" d="M25.335,19.347c0.022-0.147,0.117-0.268,0.244-0.328c0.059-0.028,0.123-0.044,0.19-0.044h2.762
		c0.327,0,0.633,0.022,0.911,0.067c0.08,0.012,0.157,0.026,0.232,0.044c0.075,0.017,0.148,0.035,0.22,0.056
		c0.035,0.011,0.07,0.021,0.104,0.032c0.137,0.046,0.265,0.1,0.382,0.161c0.139-0.881-0.001-1.481-0.478-2.025
		c-0.525-0.598-1.474-0.854-2.688-0.854h-3.523c-0.248,0-0.459,0.18-0.498,0.425l-1.467,9.303c-0.029,0.184,0.113,0.35,0.298,0.35
		h2.176l0.546-3.465L25.335,19.347z"/>
</g>
<g id="Mastercard_logo">
	<path fill="#FCB131" d="M83.108,28.333c1.491,1.353,3.494,2.173,5.673,2.173c4.679,0,8.465-3.756,8.465-8.376
		c0-4.634-3.786-8.389-8.465-8.389c-2.179,0-4.182,0.82-5.673,2.173c-1.711,1.54-2.793,3.755-2.793,6.216
		S81.397,26.808,83.108,28.333L83.108,28.333z"/>
	<path fill="#FCB131" d="M96.12,26.793c0-0.144,0.117-0.26,0.264-0.26c0.16,0,0.277,0.116,0.277,0.26
		c0,0.158-0.117,0.273-0.277,0.273C96.237,27.066,96.12,26.951,96.12,26.793L96.12,26.793z M96.383,27.009
		c0.117,0,0.22-0.102,0.22-0.217c0-0.114-0.103-0.201-0.22-0.201c-0.103,0-0.205,0.087-0.205,0.201
		C96.178,26.907,96.281,27.009,96.383,27.009L96.383,27.009z M96.354,26.922h-0.059v-0.244h0.102c0.015,0,0.045,0,0.059,0.015
		c0.03,0.014,0.03,0.028,0.03,0.058c0,0.028-0.015,0.057-0.044,0.057l0.059,0.115h-0.074l-0.029-0.101h-0.043V26.922v-0.144h0.029
		c0.014,0,0.028,0,0.028,0c0.015,0,0.015-0.015,0.015-0.028c0-0.015,0-0.015-0.015-0.029c0,0-0.015,0-0.028,0h-0.029v0.058V26.922
		L96.354,26.922z"/>
	<path fill="#ED1C2E" d="M85.841,21.237c-0.029-0.302-0.088-0.589-0.146-0.892h-5.176c0.059-0.303,0.146-0.59,0.234-0.878h4.693
		c-0.103-0.303-0.22-0.604-0.351-0.893h-3.978c0.146-0.302,0.307-0.604,0.483-0.893h2.997c-0.19-0.302-0.409-0.604-0.644-0.878
		h-1.711c0.263-0.316,0.556-0.618,0.863-0.891c-1.506-1.338-3.495-2.173-5.688-2.173c-4.665,0-8.466,3.755-8.466,8.389
		c0,4.62,3.801,8.376,8.466,8.376c2.191,0,4.182-0.82,5.688-2.173l0,0l0,0c0.307-0.273,0.584-0.562,0.848-0.878h-1.711
		c-0.234-0.288-0.438-0.577-0.644-0.893h2.998c0.19-0.288,0.351-0.576,0.497-0.893h-3.978c-0.132-0.288-0.263-0.575-0.365-0.878
		h4.693c0.103-0.287,0.175-0.59,0.248-0.892c0.059-0.288,0.117-0.591,0.146-0.893c0.029-0.287,0.044-0.576,0.044-0.878
		C85.885,21.827,85.871,21.525,85.841,21.237L85.841,21.237z"/>
	<path fill="#FFFFFF" d="M96.12,24.072c0-0.158,0.117-0.272,0.264-0.272c0.16,0,0.277,0.114,0.277,0.272
		c0,0.145-0.117,0.274-0.277,0.274C96.237,24.347,96.12,24.217,96.12,24.072L96.12,24.072z M96.383,24.274
		c0.117,0,0.22-0.086,0.22-0.202c0-0.114-0.103-0.2-0.22-0.2c-0.103,0-0.205,0.086-0.205,0.2
		C96.178,24.188,96.281,24.274,96.383,24.274L96.383,24.274z M96.354,24.188h-0.059v-0.23h0.102c0.015,0,0.045,0,0.059,0
		c0.03,0.015,0.03,0.043,0.03,0.071c0,0.016-0.015,0.043-0.044,0.058l0.059,0.102h-0.074l-0.029-0.088h-0.043V24.188v-0.13h0.029
		c0.014,0,0.028,0,0.028-0.014c0.015,0,0.015-0.016,0.015-0.03c0,0,0-0.014-0.015-0.014c0-0.015-0.015,0-0.028,0h-0.029v0.058
		V24.188L96.354,24.188z"/>
	<path fill="#003473" d="M80.227,24.548c-0.277,0.072-0.482,0.115-0.687,0.115c-0.439,0-0.702-0.274-0.702-0.763
		c0-0.101,0.015-0.202,0.029-0.317l0.059-0.331l0.044-0.272l0.394-2.361h0.878l-0.103,0.519h0.556l-0.132,0.864h-0.555l-0.234,1.409
		c-0.015,0.073-0.015,0.115-0.015,0.145c0,0.188,0.088,0.259,0.308,0.259c0.103,0,0.189-0.014,0.277-0.028L80.227,24.548
		L80.227,24.548z"/>
	<path fill="#003473" d="M83.064,24.519c-0.322,0.087-0.614,0.13-0.937,0.13c-0.994,0-1.564-0.519-1.564-1.539
		c0-1.195,0.674-2.058,1.608-2.058c0.746,0,1.229,0.488,1.229,1.251c0,0.259-0.029,0.504-0.103,0.85H81.47
		c-0.015,0.058-0.015,0.085-0.015,0.114c0,0.403,0.277,0.605,0.804,0.605c0.337,0,0.629-0.072,0.95-0.216L83.064,24.519
		L83.064,24.519z M82.522,22.461c0-0.072,0-0.13,0-0.172c0-0.288-0.16-0.446-0.438-0.446c-0.292,0-0.497,0.215-0.584,0.618H82.522
		L82.522,22.461z"/>
	<polygon fill="#003473" points="73.208,24.591 72.302,24.591 72.829,21.324 71.645,24.591 71.016,24.591 70.942,21.339 
		70.387,24.591 69.496,24.591 70.211,20.346 71.542,20.346 71.572,22.965 72.463,20.346 73.925,20.346 	"/>
	<path fill="#003473" d="M75.417,23.051c-0.087-0.014-0.116-0.014-0.176-0.014c-0.525,0-0.789,0.2-0.789,0.518
		c0,0.216,0.131,0.359,0.337,0.359C75.226,23.914,75.402,23.555,75.417,23.051L75.417,23.051z M76.148,24.591h-0.79l0.015-0.359
		c-0.205,0.273-0.482,0.417-0.965,0.417c-0.438,0-0.818-0.388-0.818-0.95c0-0.157,0.029-0.302,0.073-0.446
		c0.146-0.531,0.688-0.863,1.521-0.877c0.102,0,0.264,0,0.409,0.014c0.03-0.115,0.03-0.157,0.03-0.229
		c0-0.23-0.191-0.303-0.615-0.303c-0.263,0-0.556,0.043-0.76,0.115l-0.132,0.029l-0.058,0.014l0.131-0.777
		c0.424-0.129,0.731-0.188,1.067-0.188c0.789,0,1.214,0.36,1.214,1.022c0,0.173,0.015,0.302-0.044,0.677l-0.205,1.236l-0.028,0.217
		l-0.015,0.173l-0.015,0.114L76.148,24.591L76.148,24.591z"/>
	<path fill="#003473" d="M87.479,21.166c0.264,0,0.497,0.071,0.818,0.23l0.161-0.921c-0.088-0.043-0.116-0.043-0.233-0.087
		l-0.365-0.101c-0.117-0.028-0.264-0.043-0.424-0.043c-0.453,0-0.717,0.015-0.995,0.173c-0.146,0.101-0.336,0.23-0.54,0.46
		l-0.117-0.028l-0.936,0.647l0.043-0.36h-0.964l-0.571,3.454h0.921l0.337-1.857c0,0,0.132-0.258,0.189-0.345
		c0.176-0.216,0.322-0.216,0.512-0.216c0.03,0,0.059,0,0.073,0c-0.029,0.202-0.043,0.417-0.043,0.662
		c0,1.123,0.643,1.828,1.637,1.828c0.249,0,0.468-0.029,0.805-0.115l0.16-0.978c-0.292,0.157-0.556,0.229-0.774,0.229
		c-0.542,0-0.863-0.403-0.863-1.036C86.309,21.827,86.792,21.166,87.479,21.166L87.479,21.166z"/>
	<path fill="#003473" d="M95.242,20.346l-0.204,1.209c-0.22-0.331-0.481-0.489-0.833-0.489c-0.483,0-0.937,0.273-1.214,0.791v-0.014
		l-0.585-0.346l0.059-0.36h-0.979l-0.556,3.454h0.906l0.307-1.857c0,0,0.234-0.258,0.293-0.345c0.146-0.173,0.293-0.201,0.41-0.216
		c-0.104,0.288-0.162,0.634-0.162,1.021c0,0.864,0.454,1.439,1.126,1.439c0.336,0,0.6-0.115,0.849-0.388l-0.045,0.345h0.863
		l0.701-4.245H95.242L95.242,20.346z M94.117,23.771c-0.307,0-0.468-0.229-0.468-0.677c0-0.676,0.292-1.165,0.716-1.165
		c0.322,0,0.482,0.244,0.482,0.677C94.847,23.296,94.556,23.771,94.117,23.771L94.117,23.771z"/>
	<path fill="#003473" d="M89.891,23.051c-0.088-0.014-0.117-0.014-0.175-0.014c-0.526,0-0.79,0.2-0.79,0.518
		c0,0.216,0.132,0.359,0.337,0.359C89.702,23.914,89.877,23.555,89.891,23.051L89.891,23.051z M90.623,24.591h-0.804l0.028-0.359
		c-0.204,0.273-0.482,0.417-0.964,0.417c-0.454,0-0.848-0.374-0.848-0.95c0-0.82,0.628-1.323,1.623-1.323
		c0.102,0,0.262,0,0.395,0.014c0.028-0.115,0.043-0.157,0.043-0.229c0-0.23-0.189-0.303-0.629-0.303
		c-0.247,0-0.554,0.043-0.76,0.115l-0.117,0.029l-0.058,0.014l0.131-0.777c0.424-0.129,0.731-0.188,1.067-0.188
		c0.79,0,1.2,0.36,1.2,1.022c0,0.173,0.027,0.302-0.045,0.677l-0.189,1.236l-0.03,0.217l-0.029,0.173l-0.015,0.114V24.591
		L90.623,24.591z"/>
	<path fill="#003473" d="M78.063,21.871c0.175,0,0.425,0.015,0.688,0.058l0.131-0.806c-0.263-0.029-0.614-0.071-0.818-0.071
		c-1.023,0-1.36,0.546-1.36,1.18c0,0.417,0.19,0.72,0.688,0.949c0.365,0.173,0.424,0.201,0.424,0.36
		c0,0.215-0.189,0.345-0.541,0.345c-0.277,0-0.541-0.043-0.833-0.144l-0.103,0.791l0.015,0.015l0.175,0.028
		c0.06,0.015,0.133,0.029,0.234,0.044c0.219,0.014,0.409,0.028,0.526,0.028c1.023,0,1.447-0.388,1.447-1.151
		c0-0.475-0.233-0.764-0.687-0.965c-0.395-0.172-0.439-0.201-0.439-0.359C77.61,22.015,77.786,21.871,78.063,21.871L78.063,21.871z"
		/>
	<path fill="#FFFFFF" d="M88.707,20.201l-0.16,0.922c-0.321-0.158-0.556-0.23-0.819-0.23c-0.688,0-1.169,0.662-1.169,1.598
		c0,0.646,0.321,1.036,0.862,1.036c0.219,0,0.482-0.072,0.775-0.216l-0.162,0.964c-0.336,0.087-0.555,0.13-0.804,0.13
		c-0.994,0-1.608-0.706-1.608-1.843c0-1.51,0.849-2.576,2.063-2.576c0.16,0,0.307,0.016,0.424,0.044l0.365,0.086
		C88.59,20.158,88.62,20.173,88.707,20.201L88.707,20.201z"/>
	<path fill="#FFFFFF" d="M85.753,20.835c-0.029,0-0.059,0-0.088,0c-0.307,0-0.481,0.145-0.759,0.561l0.087-0.532h-0.833
		l-0.571,3.454h0.922c0.337-2.115,0.424-2.475,0.862-2.475c0.029,0,0.029,0,0.059,0c0.088-0.418,0.205-0.72,0.352-0.994
		L85.753,20.835L85.753,20.835z"/>
	<path fill="#FFFFFF" d="M80.461,24.274c-0.249,0.087-0.453,0.114-0.658,0.114c-0.468,0-0.731-0.259-0.731-0.763
		c0-0.085,0.015-0.201,0.029-0.302l0.059-0.345l0.044-0.273l0.395-2.36h0.906l-0.102,0.519h0.467l-0.116,0.85h-0.468l-0.249,1.438
		c-0.015,0.058-0.015,0.101-0.015,0.144c0,0.173,0.087,0.245,0.308,0.245c0.102,0,0.189,0,0.248-0.028L80.461,24.274L80.461,24.274z
		"/>
	<path fill="#FFFFFF" d="M76.937,21.957c0,0.432,0.205,0.734,0.688,0.965c0.38,0.172,0.438,0.23,0.438,0.374
		c0,0.215-0.161,0.316-0.526,0.316c-0.277,0-0.525-0.043-0.818-0.129l-0.132,0.791l0.044,0.014l0.161,0.029
		c0.058,0.015,0.132,0.028,0.249,0.028c0.204,0.029,0.38,0.029,0.496,0.029c0.966,0,1.418-0.36,1.418-1.15
		c0-0.476-0.189-0.749-0.643-0.965c-0.395-0.173-0.439-0.216-0.439-0.374c0-0.188,0.162-0.274,0.454-0.274
		c0.176,0,0.424,0.015,0.658,0.044l0.131-0.792c-0.234-0.043-0.599-0.072-0.804-0.072C77.289,20.791,76.922,21.324,76.937,21.957
		L76.937,21.957z"/>
	<path fill="#FFFFFF" d="M95.71,24.317h-0.863l0.044-0.331c-0.248,0.26-0.511,0.375-0.847,0.375c-0.673,0-1.112-0.562-1.112-1.426
		c0-1.15,0.688-2.129,1.491-2.129c0.365,0,0.629,0.158,0.878,0.475l0.205-1.209h0.905L95.71,24.317L95.71,24.317z M94.365,23.511
		c0.424,0,0.717-0.488,0.717-1.165c0-0.446-0.161-0.677-0.482-0.677c-0.409,0-0.716,0.476-0.716,1.151
		C93.883,23.281,94.044,23.511,94.365,23.511L94.365,23.511z"/>
	<path fill="#FFFFFF" d="M83.268,24.245c-0.321,0.101-0.613,0.144-0.95,0.144c-1.023,0-1.55-0.531-1.55-1.554
		c0-1.18,0.673-2.058,1.594-2.058c0.761,0,1.243,0.489,1.243,1.252c0,0.26-0.03,0.503-0.117,0.863h-1.813
		c-0.016,0.043-0.016,0.072-0.016,0.101c0,0.403,0.278,0.605,0.804,0.605c0.337,0,0.63-0.058,0.951-0.217L83.268,24.245
		L83.268,24.245z M82.756,22.188c0-0.072,0-0.13,0-0.173c0-0.287-0.16-0.445-0.438-0.445c-0.293,0-0.497,0.216-0.585,0.618H82.756
		L82.756,22.188z"/>
	<polygon fill="#FFFFFF" points="73.443,24.317 72.536,24.317 73.063,21.051 71.878,24.317 71.25,24.317 71.176,21.079 
		70.621,24.317 69.773,24.317 70.49,20.072 71.805,20.072 71.849,22.706 72.726,20.072 74.16,20.072 	"/>
	<path fill="#FFFFFF" d="M75.709,22.777c-0.088,0-0.132-0.014-0.205-0.014c-0.512,0-0.774,0.188-0.774,0.532
		c0,0.216,0.116,0.346,0.32,0.346C75.431,23.642,75.695,23.296,75.709,22.777L75.709,22.777z M76.381,24.317h-0.76l0.015-0.359
		c-0.233,0.288-0.541,0.417-0.965,0.417c-0.497,0-0.833-0.374-0.833-0.936c0-0.85,0.585-1.339,1.608-1.339
		c0.102,0,0.233,0.016,0.38,0.03c0.029-0.116,0.029-0.158,0.029-0.217c0-0.23-0.161-0.316-0.586-0.316
		c-0.263,0-0.555,0.029-0.76,0.086l-0.131,0.044l-0.088,0.014l0.132-0.776c0.453-0.13,0.76-0.173,1.096-0.173
		c0.79,0,1.214,0.346,1.214,1.008c0,0.173-0.015,0.301-0.073,0.69l-0.205,1.223l-0.029,0.216l-0.015,0.173l-0.015,0.13
		L76.381,24.317L76.381,24.317z"/>
	<path fill="#FFFFFF" d="M90.184,22.777c-0.103,0-0.146-0.014-0.205-0.014c-0.526,0-0.789,0.188-0.789,0.532
		c0,0.216,0.131,0.346,0.336,0.346C89.891,23.642,90.168,23.296,90.184,22.777L90.184,22.777z M90.856,24.317h-0.76l0.015-0.359
		c-0.233,0.288-0.541,0.417-0.965,0.417c-0.497,0-0.833-0.374-0.833-0.936c0-0.85,0.585-1.339,1.607-1.339
		c0.103,0,0.234,0.016,0.365,0.03c0.03-0.116,0.045-0.158,0.045-0.217c0-0.23-0.162-0.316-0.586-0.316
		c-0.263,0-0.569,0.029-0.774,0.086l-0.117,0.044l-0.086,0.014l0.131-0.776c0.453-0.13,0.759-0.173,1.096-0.173
		c0.79,0,1.199,0.346,1.199,1.008c0,0.173,0,0.301-0.074,0.69l-0.189,1.223l-0.03,0.216l-0.028,0.173l-0.015,0.13V24.317
		L90.856,24.317z"/>
	<path fill="#FFFFFF" d="M93.313,20.835c-0.03,0-0.059,0-0.088,0c-0.307,0-0.483,0.145-0.761,0.561l0.088-0.532h-0.834l-0.556,3.454
		h0.907c0.336-2.115,0.424-2.475,0.862-2.475c0.029,0,0.029,0,0.059,0c0.088-0.418,0.205-0.72,0.352-0.994L93.313,20.835
		L93.313,20.835z"/>
</g>
<g id="Bancontact_Mr_Cash">
	<path fill="#FFFFFF" stroke="#0079BE" stroke-width="0.8" stroke-miterlimit="2.6131" d="M153.335,14.543h10.9
		c1.443,0,1.891,1.055,1.891,1.8v11.559c0,0.718-0.447,1.801-1.891,1.801h-21.802c-1.429,0-1.892-1.083-1.892-1.801V16.343
		c0-0.745,0.463-1.8,1.892-1.8H153.335L153.335,14.543z"/>
	<polygon fill="#0079BE" points="148.206,23.332 152.185,23.332 154.413,20.955 158.407,20.955 155.017,24.724 142.476,24.724 
		142.476,22.207 149.2,22.207 	"/>
	<polygon fill="#FFE237" points="158.407,20.955 154.413,20.955 152.185,23.346 148.179,23.346 151.569,19.577 164.124,19.577 
		164.124,22.08 157.397,22.08 	"/>
	<path fill="#0079BE" d="M162.511,18.649c-0.182,0.113-0.42,0.169-0.645,0.169c-0.643,0-1.219-0.479-1.219-1.14
		s0.52-1.14,1.178-1.14c0.238,0,0.504,0.043,0.686,0.155v0.703c-0.139-0.127-0.35-0.168-0.588-0.168c-0.225,0-0.49,0.182-0.49,0.478
		c0,0.253,0.266,0.408,0.49,0.408c0.252,0,0.406-0.015,0.588-0.155V18.649L162.511,18.649z"/>
	<path fill="#0079BE" d="M164.151,18.115v0.534c-0.574,0.422-1.232,0.069-1.232-0.422v-0.984h-0.281v-0.646h0.281v-0.52l0.783-0.423
		v0.943h0.449v0.59h-0.408v0.914C163.745,18.27,164.024,18.256,164.151,18.115L164.151,18.115z"/>
	<path fill="#0079BE" d="M158.476,17.299l0.127-0.604c0.783-0.266,1.906-0.112,1.906,0.591v1.491h-0.729l-0.029-0.071
		c-0.336,0.211-1.568,0.31-1.4-0.661c0.098-0.576,0.756-0.717,1.162-0.717c0.211,0,0.295-0.196,0.029-0.211
		C159.304,17.103,158.827,17.13,158.476,17.299L158.476,17.299z"/>
	<path fill="#0079BE" d="M145.25,17.299l0.112-0.604c0.784-0.266,1.905-0.112,1.905,0.591v1.491h-0.743l-0.013-0.071
		c-0.323,0.211-1.598,0.31-1.401-0.661c0.098-0.576,0.741-0.717,1.148-0.717c0.21,0,0.294-0.196,0.043-0.211
		C146.063,17.103,145.572,17.13,145.25,17.299L145.25,17.299z"/>
	<path fill="#0079BE" d="M154.231,17.707c0,0.661-0.547,1.125-1.205,1.125s-1.219-0.492-1.219-1.153
		c0-0.647,0.561-1.152,1.205-1.152C153.685,16.525,154.231,17.031,154.231,17.707L154.231,17.707z"/>
	<path fill="#0079BE" d="M158.21,18.115v0.534c-0.588,0.422-1.232,0.069-1.232-0.422v-0.984h-0.279v-0.646h0.279v-0.52l0.799-0.423
		v0.943h0.434v0.59h-0.42v0.914C157.79,18.27,158.083,18.256,158.21,18.115L158.21,18.115z"/>
	<path fill="#0079BE" d="M143.946,15.499c0.729,0,1.262,0.972,0.589,1.576c0.841,0.521,0.463,1.673-0.477,1.688h-1.568v-3.263
		H143.946L143.946,15.499z"/>
	<path fill="#0079BE" d="M151.667,18.649c-0.182,0.113-0.393,0.169-0.631,0.169c-0.658,0-1.219-0.479-1.219-1.14
		s0.518-1.14,1.164-1.14c0.238,0,0.504,0.043,0.686,0.155v0.703c-0.154-0.127-0.336-0.168-0.574-0.168s-0.504,0.182-0.504,0.478
		c0,0.253,0.279,0.408,0.504,0.408c0.238,0,0.393-0.015,0.574-0.155V18.649L151.667,18.649z"/>
	<path fill="#0079BE" d="M149.663,17.355v1.42h-0.785v-1.224c0-0.436-0.629-0.422-0.629,0v1.224h-0.785v-2.18h0.799v0.183
		C148.921,16.287,149.663,16.736,149.663,17.355L149.663,17.355z"/>
	<path fill="#0079BE" d="M156.585,17.355v1.42H155.8v-1.224c0-0.436-0.629-0.422-0.629,0v1.224h-0.785v-2.18h0.785v0.183
		C155.843,16.287,156.585,16.736,156.585,17.355L156.585,17.355z"/>
	<path fill="#0079BE" d="M159.542,17.116c0.266,0.014,0.182,0.211-0.029,0.211c-0.406,0-1.064,0.141-1.162,0.717
		c-0.168,0.971,1.064,0.872,1.4,0.661l0.029,0.07h0.729v-1.49c0-0.703-1.123-0.857-1.906-0.591l-0.127,0.604
		C158.827,17.13,159.304,17.103,159.542,17.116L159.542,17.116z"/>
	<path fill="#0079BE" d="M146.301,17.116c0.252,0.014,0.168,0.211-0.043,0.211c-0.406,0-1.05,0.141-1.147,0.717
		c-0.197,0.971,1.078,0.872,1.4,0.661l0.014,0.07h0.743v-1.49c0-0.703-1.122-0.857-1.905-0.591l-0.112,0.604
		C145.572,17.13,146.063,17.103,146.301,17.116L146.301,17.116z"/>
	<path fill="#0079BE" d="M153.013,16.525c-0.645,0-1.205,0.506-1.205,1.153c0,0.661,0.561,1.152,1.219,1.152
		s1.205-0.463,1.205-1.124C154.231,17.031,153.685,16.525,153.013,16.525L153.013,16.525z"/>
	<path fill="#0079BE" d="M157.79,18.101v-0.914h0.42v-0.591h-0.434v-0.942l-0.799,0.422v0.52h-0.279v0.647h0.279v0.984
		c0,0.491,0.645,0.844,1.232,0.422v-0.534C158.083,18.256,157.79,18.27,157.79,18.101L157.79,18.101z"/>
	<path fill="#0079BE" d="M142.49,15.499v3.263h1.568c0.939-0.015,1.317-1.167,0.477-1.688c0.673-0.604,0.141-1.576-0.589-1.576
		H142.49L142.49,15.499z"/>
	<path fill="#0079BE" d="M151.667,17.96c-0.182,0.141-0.336,0.155-0.574,0.155c-0.225,0-0.504-0.155-0.504-0.408
		c0-0.296,0.266-0.478,0.504-0.478s0.42,0.041,0.574,0.168v-0.703c-0.182-0.112-0.447-0.154-0.686-0.154
		c-0.646,0-1.164,0.478-1.164,1.139s0.561,1.14,1.219,1.14c0.238,0,0.449-0.056,0.631-0.169V17.96L151.667,17.96z"/>
	<path fill="#0079BE" d="M148.263,16.778v-0.182h-0.799v2.18h0.785v-1.225c0-0.422,0.631-0.436,0.631,0v1.225h0.783v-1.42
		C149.663,16.736,148.921,16.287,148.263,16.778L148.263,16.778z"/>
	<path fill="#0079BE" d="M155.17,16.778v-0.182h-0.785v2.18h0.785v-1.225c0-0.422,0.629-0.436,0.629,0v1.225h0.785v-1.42
		C156.585,16.736,155.843,16.287,155.17,16.778L155.17,16.778z"/>
	<path fill="#0079BE" d="M162.511,17.96c-0.182,0.141-0.336,0.155-0.588,0.155c-0.225,0-0.49-0.155-0.49-0.408
		c0-0.296,0.266-0.478,0.49-0.478c0.238,0,0.449,0.041,0.588,0.168v-0.703c-0.182-0.112-0.447-0.154-0.686-0.154
		c-0.658,0-1.178,0.478-1.178,1.139s0.576,1.14,1.219,1.14c0.225,0,0.463-0.056,0.645-0.169V17.96L162.511,17.96z"/>
	<path fill="#0079BE" d="M163.745,18.101v-0.914h0.406v-0.591h-0.447v-0.942l-0.785,0.422v0.52h-0.281v0.647h0.281v0.984
		c0,0.491,0.658,0.844,1.232,0.422v-0.534C164.024,18.256,163.745,18.27,163.745,18.101L163.745,18.101z"/>
	<path fill="#0079BE" d="M153.474,17.707c0,0.239-0.209,0.436-0.447,0.436s-0.436-0.197-0.436-0.464
		c0-0.281,0.197-0.436,0.436-0.436S153.474,17.397,153.474,17.707L153.474,17.707z"/>
	<path fill="#0079BE" d="M143.386,17.454h0.351c0.435,0,0.477,0.661,0.015,0.661h-0.365V17.454L143.386,17.454z"/>
	<path fill="#0079BE" d="M146.482,17.819v0.267c0,0.297-0.588,0.381-0.588,0.071C145.895,17.876,146.314,17.791,146.482,17.819
		L146.482,17.819z"/>
	<path fill="#0079BE" d="M159.724,17.819v0.267c0,0.297-0.574,0.381-0.574,0.071C159.149,17.876,159.569,17.791,159.724,17.819
		L159.724,17.819z"/>
	<path fill="#0079BE" d="M143.736,16.16c0.406,0.184,0.267,0.619,0.015,0.619h-0.365V16.16
		C143.386,16.146,143.638,16.132,143.736,16.16L143.736,16.16z"/>
	<path fill="#FFFFFF" d="M153.026,17.243c-0.238,0-0.434,0.154-0.434,0.436c0,0.268,0.195,0.465,0.434,0.465
		s0.447-0.197,0.447-0.437C153.474,17.397,153.265,17.243,153.026,17.243L153.026,17.243z"/>
	<path fill="#FFFFFF" d="M159.149,18.157c0,0.31,0.574,0.225,0.574-0.071v-0.267C159.569,17.791,159.149,17.876,159.149,18.157
		L159.149,18.157z"/>
	<path fill="#FFFFFF" d="M143.386,16.16v0.619h0.365c0.252,0,0.392-0.435-0.015-0.619C143.638,16.132,143.386,16.146,143.386,16.16
		L143.386,16.16z"/>
	<path fill="#FFFFFF" d="M145.895,18.157c0,0.31,0.588,0.225,0.588-0.071v-0.267C146.314,17.791,145.895,17.876,145.895,18.157
		L145.895,18.157z"/>
	<path fill="#FFFFFF" d="M143.386,18.115h0.365c0.462,0,0.42-0.661-0.015-0.661h-0.351V18.115L143.386,18.115z"/>
	<path fill="#0079BE" d="M152.228,27.663c0-0.759-0.309-1.251-1.078-1.251c-0.729,0-1.164,0.548-1.164,1.167
		c0,0.676,0.52,1.168,1.248,1.168c0.631,0,0.951-0.254,0.951-0.254v-0.646c-0.266,0.141-0.561,0.226-0.77,0.226
		c-0.42,0-0.645-0.113-0.645-0.408L152.228,27.663L152.228,27.663z"/>
	<polygon fill="#0079BE" points="144.003,27.776 144.647,26.849 144.647,28.69 145.487,28.69 145.502,25.498 144.647,25.498 
		144.003,26.455 143.345,25.498 142.49,25.498 142.504,28.69 143.345,28.69 143.345,26.849 	"/>
	<path fill="#0079BE" d="M153.138,27.411c0.084-0.183,0.268-0.338,0.506-0.338c0.125,0,0.266,0.057,0.363,0.126v-0.688
		c-0.07-0.085-0.182-0.112-0.293-0.112c-0.197,0-0.463,0.112-0.576,0.253v-0.226h-0.756v2.265h0.756V27.411L153.138,27.411z"/>
	<path fill="#0079BE" d="M146.693,28.55c0.267,0.113,0.588,0.154,0.798,0.154c0.814,0,1.051-0.421,1.051-0.773
		c0-0.407-0.42-0.633-0.798-0.688c-0.057,0-0.21-0.043-0.21-0.113c0-0.056,0.042-0.126,0.224-0.126c0.153,0,0.435,0.056,0.575,0.126
		l-0.027-0.59c-0.211-0.07-0.506-0.127-0.729-0.127c-0.463,0-0.869,0.282-0.869,0.731c0,0.352,0.253,0.534,0.659,0.619
		c0.168,0.014,0.321,0.084,0.321,0.168c0,0.113-0.111,0.142-0.224,0.142c-0.098,0-0.351,0.028-0.771-0.142V28.55L146.693,28.55z"/>
	<path fill="#0079BE" d="M149.565,28.002v-0.929h0.434v-0.604h-0.461v-0.971l-0.799,0.422v0.55h-0.281v0.646h0.281v1.013
		c0,0.506,0.658,0.843,1.26,0.421v-0.548C149.874,28.128,149.565,28.156,149.565,28.002L149.565,28.002z"/>
	<polygon fill="#0079BE" points="146.553,28.662 146.553,26.469 145.712,26.469 145.712,28.662 	"/>
	<path fill="#0079BE" d="M146.133,26.398c0.252,0,0.462-0.211,0.462-0.464c0-0.239-0.21-0.437-0.462-0.437
		c-0.238,0-0.435,0.197-0.435,0.437C145.698,26.188,145.895,26.398,146.133,26.398L146.133,26.398z"/>
	<path fill="#0079BE" d="M159.948,28.55c0.266,0.113,0.588,0.154,0.799,0.154c0.811,0,1.064-0.421,1.064-0.773
		c0-0.407-0.422-0.633-0.813-0.688c-0.057,0-0.211-0.043-0.211-0.113c0-0.056,0.043-0.126,0.238-0.126
		c0.154,0,0.42,0.056,0.574,0.126l-0.043-0.59c-0.209-0.07-0.504-0.127-0.727-0.127c-0.463,0-0.869,0.282-0.869,0.731
		c0,0.352,0.252,0.534,0.658,0.619c0.168,0.014,0.322,0.084,0.322,0.168c0,0.113-0.111,0.142-0.225,0.142
		c-0.098,0-0.35,0.028-0.77-0.142V28.55L159.948,28.55z"/>
	<path fill="#0079BE" d="M157.481,27.763c-0.266,0.196-0.477,0.239-0.826,0.239c-0.533,0-1.01-0.437-1.01-0.886
		c0-0.493,0.268-0.957,1.01-0.957c0.336,0,0.615,0.057,0.826,0.253v-0.76c-0.266-0.154-0.631-0.196-0.953-0.196
		c-0.965,0-1.709,0.688-1.709,1.631c0,0.929,0.813,1.631,1.766,1.631c0.322,0,0.631-0.069,0.896-0.225V27.763L157.481,27.763z"/>
	<path fill="#0079BE" d="M158.827,26.96c0.266,0.015,0.182,0.226-0.027,0.226c-0.422,0-1.094,0.141-1.178,0.717
		c-0.182,0.985,1.078,0.901,1.414,0.69l0.029,0.056h0.756V27.13c0-0.718-1.148-0.858-1.961-0.591l-0.113,0.604
		C158.099,26.975,158.589,26.946,158.827,26.96L158.827,26.96z"/>
	<path fill="#0079BE" d="M162.708,26.638v-1.14h-0.785v3.192h0.785v-1.252c0-0.422,0.645-0.436,0.645,0v1.252h0.799v-1.448
		C164.151,26.596,163.394,26.145,162.708,26.638L162.708,26.638z"/>
	<path fill="#FFFFFF" d="M150.741,27.229c0.043-0.212,0.211-0.282,0.365-0.282s0.352,0.07,0.352,0.282H150.741L150.741,27.229z"/>
	<path fill="#FFFFFF" d="M159.009,27.678v0.268c0,0.31-0.588,0.38-0.588,0.07C158.421,27.734,158.854,27.663,159.009,27.678
		L159.009,27.678z"/>
</g>
<g>
	<g>
		<defs>
			<rect id="SVGID_1_" x="170.212" y="13.024" width="18.045" height="17.846"/>
		</defs>
		<clipPath id="SVGID_2_">
			<use xlink:href="#SVGID_1_"  overflow="visible"/>
		</clipPath>
		<path clip-path="url(#SVGID_2_)" fill="#A6ACB2" d="M174.179,13.024c2.182,0,5.617,1.388,7.932,2.645
			c2.576,1.388,6.146,4.295,6.146,6.278c0,2.115-3.701,4.891-6.146,6.279c-2.248,1.257-5.619,2.71-7.865,2.71
			c-0.596,0-1.059-0.131-1.455-0.331c-1.785-0.991-2.578-5.155-2.578-8.592c0-1.718,0.197-3.635,0.596-5.155
			c0.463-1.851,1.123-3.041,1.982-3.503C173.12,13.089,173.585,13.024,174.179,13.024"/>
	</g>
	<g>
		<g>
			<defs>
				<path id="SVGID_3_" d="M173.12,13.882c-1.453,0.794-2.313,4.892-2.313,8.064c0,3.239,0.793,7.271,2.313,8.064
					c1.389,0.794,5.156-0.397,8.725-2.314c3.041-1.652,5.816-4.163,5.816-5.75c0-1.521-2.842-4.097-5.816-5.75
					c-2.775-1.52-5.816-2.512-7.6-2.512C173.782,13.685,173.384,13.751,173.12,13.882"/>
			</defs>
			<clipPath id="SVGID_4_">
				<use xlink:href="#SVGID_3_"  overflow="visible"/>
			</clipPath>
			
				<radialGradient id="SVGID_5_" cx="957.3916" cy="831.7373" r="0.5501" gradientTransform="matrix(21.4923 0 0 -21.4923 -20401.7578 17895.8555)" gradientUnits="userSpaceOnUse">
				<stop  offset="0" style="stop-color:#FFC52A"/>
				<stop  offset="1" style="stop-color:#F37023"/>
			</radialGradient>
			<path clip-path="url(#SVGID_4_)" fill="url(#SVGID_5_)" d="M170.808,13.685h16.854v17.12h-16.854V13.685z"/>
		</g>
	</g>
	<g>
		<g>
			<path fill="#FFFFFF" d="M183.796,23.503c-0.01,0-0.016-0.007-0.016-0.015V21.97c0-0.336-0.115-0.48-0.383-0.48
				c-0.096,0-0.213,0.036-0.328,0.101c-0.113,0.066-0.203,0.121-0.234,0.142c-0.01,0.005-0.02,0.021-0.02,0.032v1.725
				c0,0.008-0.008,0.015-0.016,0.015h-0.678c-0.008,0-0.014-0.007-0.014-0.015v-2.441c0-0.041,0.031-0.072,0.072-0.072h0.619
				c0.008,0,0.016,0.007,0.016,0.016v0.191c0,0.012,0.01,0.021,0.021,0.021c0.006,0,0.01-0.003,0.014-0.004l0.02-0.016
				c0.074-0.058,0.191-0.124,0.27-0.154c0.17-0.064,0.352-0.102,0.502-0.102c0.553,0,0.844,0.318,0.844,0.919l0.002,1.642
				c0,0.009-0.008,0.015-0.018,0.015H183.796"/>
			<path fill="#FFFFFF" d="M185.046,23.503c-0.01,0-0.016-0.007-0.016-0.015l-0.002-3.739c0-0.013,0.004-0.018,0.021-0.018
				c0.043,0,0.42,0.237,0.543,0.372c0.09,0.1,0.141,0.235,0.141,0.372l0.002,3.013c0,0.008-0.008,0.015-0.016,0.015H185.046"/>
		</g>
		<g>
			<path fill="#292E86" d="M177.552,22.238c0,0.894-0.59,1.321-1.318,1.321c-0.73,0-1.322-0.428-1.322-1.321
				c0-0.914,0.592-1.32,1.322-1.32C176.962,20.918,177.552,21.324,177.552,22.238 M176.804,22.238c0-0.482-0.244-0.693-0.57-0.693
				c-0.328,0-0.572,0.211-0.572,0.693c0,0.444,0.244,0.692,0.572,0.692C176.56,22.931,176.804,22.683,176.804,22.238z"/>
			<path fill="#292E86" d="M180.991,20.28c0-0.02-0.008-0.026-0.029-0.026c-0.049,0-0.43,0.244-0.547,0.374
				c-0.09,0.098-0.146,0.234-0.146,0.378v1.624c0,0.705,0.406,0.926,0.844,0.926c0.252,0,0.422-0.038,0.523-0.092
				c0.02-0.012,0.041-0.036,0.041-0.07v-0.461c0-0.014-0.012-0.024-0.025-0.024c-0.025,0-0.191,0.064-0.297,0.064
				c-0.227,0-0.363-0.106-0.363-0.465v-0.933c0-0.014,0.012-0.024,0.025-0.024h0.611c0.014,0,0.023-0.012,0.023-0.025h0.002
				l-0.002-0.48c0-0.044-0.035-0.08-0.078-0.08h-0.557c-0.014,0-0.025-0.011-0.025-0.024V20.28"/>
			<path fill="#292E86" d="M172.157,21.047c0-0.045,0.035-0.082,0.08-0.082h0.965c0.945,0,1.436,0.568,1.436,1.303
				c0,0.735-0.549,1.245-1.451,1.245h-0.281c-0.016,0-0.025,0.012-0.025,0.025v1.19c0,0.021-0.008,0.027-0.029,0.027
				c-0.051,0-0.432-0.244-0.549-0.375c-0.088-0.098-0.145-0.234-0.145-0.379V21.047 M173.923,22.231
				c0-0.313-0.203-0.605-0.736-0.605h-0.281c-0.016,0-0.025,0.011-0.025,0.024v1.176c0,0.014,0.01,0.024,0.025,0.024h0.297
				C173.837,22.851,173.923,22.409,173.923,22.231z"/>
			<path fill="#292E86" d="M179.589,22.128c-0.148-0.099-0.332-0.139-0.508-0.178c-0.031-0.007-0.148-0.033-0.176-0.039
				c-0.215-0.048-0.385-0.087-0.385-0.226c0-0.12,0.117-0.198,0.295-0.198c0.227,0,0.543,0.045,0.887,0.174
				c0.018,0.007,0.041-0.003,0.043-0.026v-0.5c0-0.033-0.021-0.067-0.059-0.079c-0.121-0.038-0.479-0.138-0.783-0.138
				c-0.336,0-0.617,0.074-0.811,0.218c-0.195,0.143-0.299,0.35-0.299,0.599c0,0.561,0.459,0.667,0.895,0.771
				c0.066,0.016,0.057,0.013,0.08,0.019c0.199,0.043,0.404,0.089,0.404,0.252c0,0.049-0.018,0.089-0.055,0.127
				c-0.055,0.055-0.141,0.078-0.305,0.078c-0.277,0-0.797-0.129-0.957-0.18c-0.002-0.001-0.008-0.002-0.012-0.002
				c-0.018,0-0.031,0.014-0.031,0.029v0.5c0,0.035,0.023,0.066,0.057,0.078c0.004,0.002,0.459,0.152,0.889,0.152
				c0.752,0,1.139-0.294,1.139-0.83C179.897,22.459,179.796,22.263,179.589,22.128"/>
		</g>
		<path fill="#FFFFFF" d="M175.118,20.314c-0.061,0-0.086-0.031-0.086-0.102v-0.273c0-0.063,0.053-0.114,0.113-0.114h2.176
			c0.063,0,0.115,0.052,0.115,0.114v0.273c0,0.07-0.025,0.102-0.086,0.102H175.118 M177.085,19.547
			c-0.023,0-0.039-0.007-0.049-0.018c-0.008-0.013-0.008-0.034,0-0.06c0.072-0.226,0.316-0.907,0.318-0.914
			c0.016-0.044-0.002-0.105-0.047-0.122l-0.123-0.041c-0.01-0.002-0.018-0.003-0.025-0.003c-0.023,0-0.037,0.012-0.043,0.023
			c-0.051,0.112-0.078,0.191-0.119,0.324c-0.006,0.022-0.023,0.034-0.055,0.034h-0.24c-0.018,0-0.031-0.006-0.037-0.014
			c-0.008-0.009-0.008-0.023-0.004-0.041c0.063-0.222,0.125-0.399,0.215-0.595c0.016-0.034,0.053-0.092,0.135-0.092
			c0.014,0,0.029,0.003,0.047,0.007h0.002c0.08,0.02,0.174,0.04,0.27,0.07c0.076,0.022,0.154,0.051,0.236,0.08
			c0.246,0.091,0.236,0.268,0.188,0.446c-0.029,0.108-0.172,0.51-0.258,0.748c-0.02,0.052-0.033,0.094-0.045,0.123
			c-0.01,0.028-0.031,0.042-0.07,0.042H177.085z M176.079,19.547c-0.053,0-0.057-0.061-0.057-0.062c0-0.014-0.018-1.286-0.02-1.459
			c0-0.013,0.004-0.042,0.023-0.06c0.008-0.011,0.021-0.015,0.037-0.015c0.023-0.002,0.092-0.005,0.168-0.005
			c0.08,0,0.146,0.003,0.172,0.005c0.016,0,0.027,0.004,0.037,0.015c0.018,0.017,0.021,0.047,0.021,0.06
			c-0.002,0.173-0.018,1.445-0.018,1.459c0,0-0.004,0.062-0.059,0.062H176.079z M175.085,19.547c-0.037,0-0.061-0.014-0.07-0.042
			c-0.012-0.029-0.025-0.071-0.043-0.123c-0.088-0.238-0.23-0.64-0.26-0.748c-0.047-0.179-0.059-0.355,0.188-0.446
			c0.082-0.029,0.162-0.058,0.236-0.08c0.098-0.03,0.189-0.051,0.271-0.07h0.002c0.016-0.004,0.031-0.007,0.047-0.007
			c0.082,0,0.119,0.058,0.135,0.092c0.086,0.195,0.15,0.373,0.213,0.595c0.004,0.018,0.004,0.032-0.004,0.041
			c-0.006,0.009-0.02,0.014-0.037,0.014h-0.24c-0.031,0-0.049-0.012-0.057-0.034c-0.039-0.133-0.066-0.213-0.117-0.324
			c-0.006-0.012-0.02-0.023-0.043-0.023c-0.008,0-0.016,0.001-0.023,0.003l-0.123,0.041c-0.047,0.017-0.064,0.078-0.049,0.122
			c0.004,0.007,0.248,0.688,0.318,0.914c0.01,0.025,0.008,0.047,0,0.06c-0.01,0.011-0.025,0.018-0.047,0.018H175.085z
			 M176.231,17.69c-0.012,0-0.025-0.006-0.041-0.018c-0.102-0.08-0.195-0.174-0.275-0.278c-0.01-0.013-0.027-0.035-0.002-0.065
			c0.086-0.109,0.184-0.207,0.293-0.289c0.014-0.008,0.02-0.01,0.025-0.01c0.008,0,0.016,0.002,0.029,0.01
			c0.107,0.083,0.207,0.18,0.291,0.289c0.023,0.026,0.014,0.049,0,0.065c-0.082,0.104-0.176,0.198-0.275,0.278
			c-0.016,0.012-0.029,0.018-0.043,0.018H176.231z"/>
	</g>
</g>
<g>
	<path d="M201.788,15.146l8.37,5.802v9.606h-16.932v-9.606 M201.788,13.338l-8.562,5.708v1.143l8.562-5.804l8.37,5.804v-1.143"/>
	<path fill="#FFFFFF" d="M201.788,16.192l7.039,4.756l-7.039,5.042l-7.229-5.042"/>
	<path fill="#D13239" d="M201.312,26.655l-7.419-5.137v8.371h7.419"/>
	<path fill="#BABF10" d="M209.396,21.519l-7.229,5.137v3.234h7.229"/>
</g>
</svg>
