<?xml version="1.0" encoding="UTF-8" standalone="no"?>
<svg width="19px" height="19px" viewBox="0 0 19 19" version="1.1" xmlns="http://www.w3.org/2000/svg" xmlns:xlink="http://www.w3.org/1999/xlink">
    <!-- Generator: Sketch 3.6.1 (26313) - http://www.bohemiancoding.com/sketch -->
    <title>Group</title>
    <desc>Created with Sketch.</desc>
    <defs></defs>
    <g id="Page-1" stroke="none" stroke-width="1" fill="none" fill-rule="evenodd">
        <g id="PRODUCT-OVERZICHT-PAGINA" transform="translate(-59.000000, -1333.000000)" fill="#538F00">
            <g id="Header" transform="translate(-313.000000, 0.000000)">
                <g id="Footer" transform="translate(302.000000, 1276.000000)">
                    <g id="social" transform="translate(70.000000, 56.000000)">
                        <g id="Tevreden">
                            <g id="Group" transform="translate(0.000000, 1.176471)">
                                <path d="M17.1965455,4.71962652 C16.375461,3.28754435 15.2616039,2.15365079 13.8548273,1.31779645 C12.4476104,0.48194211 10.9115442,0.0640896359 9.2456013,0.0640896359 C7.57965844,0.0640896359 6.04315195,0.48194211 4.63637532,1.31779645 C3.22945195,2.1535014 2.11559481,3.28739496 1.29451039,4.71962652 C0.473279221,6.15185808 0.0628103896,7.71600373 0.0628103896,9.41176471 C0.0628103896,11.1076751 0.473425974,12.6715219 1.29436364,14.1039029 C2.11544805,15.5358357 3.22930519,16.6698786 4.63622857,17.505733 C6.04315195,18.3414379 7.57951169,18.7592904 9.24545455,18.7592904 C10.9113974,18.7592904 12.4479039,18.3414379 13.8546805,17.505733 C15.2614571,16.6698786 16.3753143,15.5358357 17.1963987,14.1039029 C18.0173364,12.6715219 18.4278052,11.1075257 18.4278052,9.41176471 C18.4278052,7.71585434 18.0173364,6.15170868 17.1965455,4.71962652 L17.1965455,4.71962652 Z M16.2878494,12.4363772 C15.8811961,13.3978711 15.3373286,14.2256583 14.6558065,14.9192904 C13.9744312,15.6130719 13.1612714,16.1668721 12.2167675,16.5805415 C11.2721169,16.9945098 10.281826,17.2014192 9.2456013,17.2014192 C8.20937662,17.2014192 7.21908571,16.9943604 6.27443506,16.5805415 C5.32993117,16.1667227 4.51677143,15.6129225 3.83524935,14.9192904 C3.15387403,14.2255089 2.60985974,13.3980205 2.20320649,12.4363772 C1.7967,11.4748833 1.59344675,10.4664799 1.59344675,9.41176471 C1.59344675,8.35690009 1.7967,7.34879552 2.20320649,6.38715219 C2.60971299,5.42565826 3.15372727,4.59802054 3.83524935,3.90408964 C4.51677143,3.21045752 5.32993117,2.65665733 6.27443506,2.24268908 C7.21893896,1.82901961 8.20937662,1.62211018 9.2456013,1.62211018 C10.2816792,1.62211018 11.2722636,1.82887021 12.2167675,2.24268908 C13.1612714,2.65650794 13.9742844,3.21030812 14.6558065,3.90408964 C15.3373286,4.59787115 15.8813429,5.42550887 16.2878494,6.38715219 C16.6943558,7.34864613 16.8977558,8.3567507 16.8977558,9.41176471 C16.8979026,10.4666293 16.6943558,11.4750327 16.2878494,12.4363772 L16.2878494,12.4363772 Z" id="Shape"></path>
                                <path d="M17.1965455,4.71962652 C16.375461,3.28754435 15.2616039,2.15365079 13.8548273,1.31779645 C12.4476104,0.48194211 10.9115442,0.0640896359 9.2456013,0.0640896359 C7.57965844,0.0640896359 6.04315195,0.48194211 4.63637532,1.31779645 C3.22945195,2.1535014 2.11559481,3.28739496 1.29451039,4.71962652 C0.473279221,6.15185808 0.0628103896,7.71600373 0.0628103896,9.41176471 C0.0628103896,11.1076751 0.473425974,12.6715219 1.29436364,14.1039029 C2.11544805,15.5358357 3.22930519,16.6698786 4.63622857,17.505733 C6.04315195,18.3414379 7.57951169,18.7592904 9.24545455,18.7592904 C10.9113974,18.7592904 12.4479039,18.3414379 13.8546805,17.505733 C15.2614571,16.6698786 16.3753143,15.5358357 17.1963987,14.1039029 C18.0173364,12.6715219 18.4278052,11.1075257 18.4278052,9.41176471 C18.4278052,7.71585434 18.0173364,6.15170868 17.1965455,4.71962652 L17.1965455,4.71962652 Z M16.2878494,12.4363772 C15.8811961,13.3978711 15.3373286,14.2256583 14.6558065,14.9192904 C13.9744312,15.6130719 13.1612714,16.1668721 12.2167675,16.5805415 C11.2721169,16.9945098 10.281826,17.2014192 9.2456013,17.2014192 C8.20937662,17.2014192 7.21908571,16.9943604 6.27443506,16.5805415 C5.32993117,16.1667227 4.51677143,15.6129225 3.83524935,14.9192904 C3.15387403,14.2255089 2.60985974,13.3980205 2.20320649,12.4363772 C1.7967,11.4748833 1.59344675,10.4664799 1.59344675,9.41176471 C1.59344675,8.35690009 1.7967,7.34879552 2.20320649,6.38715219 C2.60971299,5.42565826 3.15372727,4.59802054 3.83524935,3.90408964 C4.51677143,3.21045752 5.32993117,2.65665733 6.27443506,2.24268908 C7.21893896,1.82901961 8.20937662,1.62211018 9.2456013,1.62211018 C10.2816792,1.62211018 11.2722636,1.82887021 12.2167675,2.24268908 C13.1612714,2.65650794 13.9742844,3.21030812 14.6558065,3.90408964 C15.3373286,4.59787115 15.8813429,5.42550887 16.2878494,6.38715219 C16.6943558,7.34864613 16.8977558,8.3567507 16.8977558,9.41176471 C16.8979026,10.4666293 16.6943558,11.4750327 16.2878494,12.4363772 L16.2878494,12.4363772 Z" id="Shape"></path>
                                <path d="M13.1313338,10.6167694 C12.9321896,10.5514846 12.736861,10.5682166 12.5454948,10.6654715 C12.3539818,10.762577 12.2264532,10.9170495 12.1630558,11.1279925 C11.9640584,11.7772549 11.5951208,12.3026704 11.0569766,12.704239 C10.519126,13.1058077 9.91523636,13.3067414 9.2456013,13.3067414 C8.57611299,13.3067414 7.97237013,13.1056583 7.43422597,12.704239 C6.89622857,12.302521 6.52758442,11.7772549 6.32829351,11.1279925 C6.2646026,10.9170495 6.13898182,10.7627264 5.95172468,10.6654715 C5.76446753,10.5682166 5.57119351,10.5514846 5.3719026,10.6167694 C5.16468701,10.681606 5.01323766,10.8093371 4.91755455,10.9998133 C4.82187143,11.1904388 4.80587532,11.3876377 4.86971299,11.5902148 C5.16454026,12.5721755 5.71457143,13.363212 6.51965974,13.9637722 C7.32474805,14.5643324 8.23344416,14.8643137 9.24574805,14.8643137 C10.2579052,14.8643137 11.1668948,14.564183 11.9718364,13.9637722 C12.7764844,13.3630626 13.3265156,12.5723249 13.6214896,11.5902148 C13.6856208,11.3876377 13.6696247,11.1904388 13.5737948,10.9998133 C13.4778182,10.8093371 13.3303312,10.6817554 13.1313338,10.6167694 L13.1313338,10.6167694 Z" id="Shape"></path>
                                <path d="M6.18462208,7.85389356 C6.60697792,7.85389356 6.9676974,7.70151261 7.26663377,7.39734827 C7.56557013,7.09318394 7.71511169,6.72597572 7.71511169,6.29587302 C7.71511169,5.86577031 7.56557013,5.49871148 7.26663377,5.19439776 C6.9676974,4.89008403 6.60697792,4.73785247 6.18462208,4.73785247 C5.76211948,4.73785247 5.4014,4.89008403 5.10246364,5.19439776 C4.80367403,5.49871148 4.65413247,5.86577031 4.65413247,6.29587302 C4.65413247,6.72597572 4.80352727,7.09318394 5.10246364,7.39734827 C5.40154675,7.701662 5.76211948,7.85389356 6.18462208,7.85389356 L6.18462208,7.85389356 Z" id="Shape"></path>
                                <path d="M12.306287,4.73785247 C11.8837844,4.73785247 11.5229182,4.89008403 11.2239818,5.19439776 C10.925339,5.49871148 10.7755039,5.86577031 10.7755039,6.29587302 C10.7755039,6.72597572 10.925339,7.09318394 11.2239818,7.39734827 C11.5229182,7.701662 11.8837844,7.85389356 12.306287,7.85389356 C12.7284961,7.85389356 13.0893623,7.70151261 13.3882987,7.39734827 C13.6872351,7.09318394 13.8367766,6.72597572 13.8367766,6.29587302 C13.8367766,5.86577031 13.6872351,5.49871148 13.3882987,5.19439776 C13.0893623,4.89008403 12.7284961,4.73785247 12.306287,4.73785247 L12.306287,4.73785247 Z" id="Shape"></path>
                            </g>
                        </g>
                    </g>
                </g>
            </g>
        </g>
    </g>
</svg>