<?xml version="1.0" encoding="utf-8"?>
<!-- Generator: Adobe Illustrator 15.1.0, SVG Export Plug-In . SVG Version: 6.00 Build 0)  -->
<!DOCTYPE svg PUBLIC "-//W3C//DTD SVG 1.1//EN" "http://www.w3.org/Graphics/SVG/1.1/DTD/svg11.dtd">
<svg version="1.1" id="Layer_1" xmlns="http://www.w3.org/2000/svg" xmlns:xlink="http://www.w3.org/1999/xlink" x="0px" y="0px"
	 width="43.307px" height="40px" viewBox="0 0 43.307 40" enable-background="new 0 0 43.307 40" xml:space="preserve">
<g id="def_zonder_koord">
	<path fill="#6E2771" d="M24.884,4.581c-1.437,0-2.601,1.165-2.601,2.601c0,1.436,1.164,2.6,2.601,2.6s2.601-1.165,2.601-2.6
		C27.485,5.745,26.321,4.581,24.884,4.581z M24.884,8.33c-0.636,0-1.149-0.514-1.149-1.149s0.514-1.15,1.149-1.15
		s1.15,0.516,1.15,1.15S25.52,8.33,24.884,8.33z"/>
	<radialGradient id="SVGID_1_" cx="21.5522" cy="20.8931" r="19.1822" gradientUnits="userSpaceOnUse">
		<stop  offset="0" style="stop-color:#B169AB"/>
		<stop  offset="0.197" style="stop-color:#AF66A9"/>
		<stop  offset="0.3888" style="stop-color:#A95DA3"/>
		<stop  offset="0.5783" style="stop-color:#9E4D9B"/>
		<stop  offset="0.7658" style="stop-color:#913691"/>
		<stop  offset="0.7678" style="stop-color:#913690"/>
	</radialGradient>
	<path fill="url(#SVGID_1_)" stroke="#6E2771" stroke-miterlimit="10" d="M40.917,25.613l-0.054-0.046
		c0.531-0.683,0.841-1.514,0.841-2.401c0-1.223-0.612-2.452-1.796-3.214C42.211,11.52,33.63,4.853,24.22,9.276
		C18.531-0.396,5.776,1.088,4.56,11.943c-0.14-0.019-0.278-0.041-0.424-0.041c-1.559,0-2.826,1.165-2.826,2.596v6.022
		c0,0.797,0.384,1.531,1.054,2.012c0.479,0.345,1.083,0.535,1.701,0.535l0.2-0.007c0.64-0.042,1.217-0.277,1.673-0.637
		c2.876,9.177,8.952,16.529,8.952,16.529s9.891-2.761,17.64-9.134c0.077-0.029,0.16-0.048,0.234-0.083
		c0.404,0.218,0.866,0.353,1.366,0.353c0.98,0,1.843-0.478,2.334-1.197l0.457,0.443c0.511,0.484,1.245,0.764,2.019,0.767h0.01
		c1.595,0,2.845-1.144,2.845-2.605C41.794,26.813,41.508,26.166,40.917,25.613z"/>
	<g>
		<path fill="#FFFFFF" d="M10.328,14.465v5.643c0,0.305-0.334,0.582-0.735,0.608c-0.249,0.016-0.483-0.069-0.615-0.209L4.95,16.359
			v4.065c0,0.32-0.369,0.612-0.813,0.641c-0.448,0.029-0.826-0.22-0.826-0.544v-6.022c0-0.324,0.378-0.596,0.826-0.596
			c0.286,0,0.515,0.093,0.657,0.249l4.053,4.263v-3.942c0-0.308,0.342-0.567,0.746-0.566C9.994,13.905,10.328,14.161,10.328,14.465z
			"/>
		<path fill="#FFFFFF" d="M13.393,18.728l-0.741,1.426c-0.11,0.208-0.346,0.387-0.667,0.408c-0.387,0.025-0.712-0.208-0.712-0.509
			c0-0.058,0.012-0.136,0.05-0.206l2.886-5.599c0.071-0.132,0.261-0.339,0.627-0.339c0.362,0,0.548,0.206,0.617,0.336l2.663,5.216
			c0.033,0.062,0.045,0.134,0.045,0.188c0,0.282-0.287,0.537-0.63,0.559c-0.29,0.019-0.503-0.125-0.604-0.312l-0.69-1.3
			L13.393,18.728z M14.835,15.693l-0.973,2.008l1.925-0.071L14.835,15.693z"/>
		<path fill="#FFFFFF" d="M21.806,18.692l-1.623-2.399v3.236c0,0.276-0.273,0.525-0.604,0.547c-0.331,0.021-0.61-0.195-0.61-0.475
			v-5.177c0-0.279,0.279-0.513,0.61-0.513c0.267,0,0.435,0.125,0.541,0.285l2.181,3.298l2.084-3.309
			c0.096-0.153,0.25-0.271,0.487-0.272c0.294,0.001,0.538,0.219,0.538,0.479v4.829c0,0.261-0.244,0.496-0.538,0.514
			c-0.295,0.019-0.546-0.187-0.546-0.45v-3.095l-1.535,2.45c-0.099,0.161-0.289,0.257-0.49,0.268
			C22.101,18.919,21.909,18.843,21.806,18.692z"/>
		<path fill="#FFFFFF" d="M27.578,16.3l1.658-0.044c0.238-0.006,0.436,0.172,0.436,0.396c0,0.224-0.197,0.415-0.436,0.423
			l-1.658,0.061v1.508l2.306-0.124c0.246-0.013,0.438,0.159,0.438,0.389s-0.192,0.425-0.438,0.441l-2.827,0.179
			c-0.291,0.018-0.528-0.182-0.528-0.448v-4.62c0-0.265,0.237-0.481,0.528-0.481l2.734-0.001c0.246,0,0.44,0.183,0.44,0.414
			s-0.194,0.416-0.44,0.417l-2.213,0.022V16.3z"/>
		<path fill="#FFFFFF" d="M32.927,14.672c-0.66,0.005-0.909,0.311-0.909,0.622c0,1.019,2.839,0.48,2.839,2.359
			c0,0.917-0.65,1.53-1.93,1.612c-0.949,0.062-1.723-0.353-2.043-0.83c-0.042-0.061-0.067-0.138-0.067-0.218
			c0-0.236,0.199-0.435,0.438-0.445c0.181-0.008,0.277,0.081,0.359,0.155c0.34,0.312,0.765,0.552,1.313,0.522
			c0.71-0.039,1.05-0.286,1.05-0.755c0-1.11-2.903-0.489-2.903-2.385c0-0.779,0.581-1.439,1.854-1.438
			c0.78,0.001,1.446,0.281,1.751,0.709c0.044,0.067,0.074,0.15,0.074,0.24c0,0.219-0.182,0.402-0.409,0.406
			c-0.106,0.001-0.214-0.057-0.328-0.162C33.777,14.84,33.374,14.668,32.927,14.672z"/>
	</g>
	<g>
		<path fill="#FFFFFF" d="M17.278,24.876l1.649-0.069c0.25-0.01,0.46,0.17,0.46,0.399c0,0.229-0.21,0.424-0.46,0.432l-1.649,0.05
			v1.464l2.335-0.023c0.265-0.003,0.476,0.185,0.476,0.426c0,0.24-0.211,0.43-0.476,0.429l-2.829-0.004
			c-0.267-0.001-0.482-0.206-0.482-0.456v-4.373c0-0.251,0.216-0.472,0.482-0.491l2.729-0.201c0.265-0.019,0.477,0.156,0.477,0.396
			s-0.212,0.443-0.477,0.459l-2.234,0.138V24.876z"/>
		<path fill="#FFFFFF" d="M22.768,27.743l-2.185-4.761c-0.027-0.057-0.036-0.105-0.036-0.181c0-0.267,0.243-0.501,0.543-0.524
			c0.276-0.02,0.449,0.12,0.507,0.25l1.709,3.859l1.788-4.105c0.063-0.137,0.253-0.319,0.561-0.342
			c0.342-0.026,0.622,0.186,0.622,0.473c0,0.081-0.011,0.135-0.043,0.2l-2.382,5.128c-0.081,0.173-0.244,0.32-0.546,0.32
			C23.007,28.06,22.846,27.914,22.768,27.743z"/>
		<path fill="#FFFFFF" d="M28.45,24.41l2.215-0.093c0.34-0.014,0.619,0.194,0.619,0.46c0,0.267-0.279,0.494-0.619,0.504L28.45,25.35
			v1.693l3.142-0.031c0.357-0.003,0.644,0.216,0.644,0.496c0,0.279-0.286,0.5-0.644,0.499L27.792,28
			c-0.357-0.001-0.646-0.237-0.646-0.527v-5.047c0-0.29,0.288-0.547,0.646-0.574l3.664-0.27c0.356-0.026,0.643,0.175,0.643,0.455
			c0,0.279-0.286,0.517-0.643,0.539l-3.006,0.186V24.41z"/>
		<path fill="#FFFFFF" d="M34.893,25.452v2.064c0,0.318-0.344,0.574-0.765,0.573c-0.414,0-0.751-0.255-0.751-0.568v-5.513
			c0-0.312,0.337-0.59,0.751-0.622l2.564-0.188c1.906-0.14,3.012,0.784,3.012,1.966c0,0.994-0.846,1.981-2.217,2.144l2.129,1.823
			c0.133,0.125,0.178,0.25,0.178,0.365c0,0.335-0.384,0.606-0.849,0.605c-0.248-0.001-0.506-0.083-0.648-0.218l-2.534-2.456
			L34.893,25.452z M34.893,22.365v2.074l1.829-0.07c0.863-0.034,1.245-0.571,1.245-1.115c0-0.556-0.382-1.056-1.288-1L34.893,22.365
			z"/>
	</g>
	<g>
		<path fill="#FFFFFF" d="M14.442,26.19c0.257-0.001,0.474,0.165,0.474,0.373c0,0.205-0.217,0.372-0.474,0.366l-0.304-0.006v0.678
			c0,0.222-0.226,0.395-0.488,0.376c-0.252-0.016-0.466-0.208-0.466-0.421v-0.652L11.3,26.867c-0.2-0.004-0.347-0.15-0.347-0.323
			c0-0.069,0.021-0.118,0.063-0.176l2.24-2.976c0.075-0.108,0.21-0.21,0.394-0.23c0.263-0.038,0.488,0.118,0.488,0.34v2.693
			L14.442,26.19z M13.184,26.205v-1.58l-1.21,1.591L13.184,26.205z"/>
	</g>
	<g>
		<path fill="#EEE6EE" d="M6.778,11.869c-0.015-1.12,0.263-2.244,0.754-3.264C8.011,7.574,8.714,6.63,9.613,5.858
			c0.909-0.75,2.05-1.305,3.251-1.405c1.195-0.131,2.372,0.209,3.306,0.813L16.142,5.35c-1.017-0.319-2.108-0.427-3.151-0.22
			c-1.044,0.201-2.012,0.712-2.818,1.398C9.353,7.204,8.674,8.045,8.122,8.957c-0.55,0.914-0.991,1.9-1.26,2.934L6.778,11.869z"/>
	</g>
	<g>
		<path fill="#6E2771" d="M25.212,6.704c-0.017,0-0.033,0-0.051-0.002c-0.783-0.058-1.013-1.663-1.018-1.73
			c-0.055-0.894,0.33-1.629,0.867-1.878c0.448-0.208,0.828-0.031,1.024,0.066c0.223,0.11,0.374,0.425,0.374,0.76
			c0,0-0.746,0.016-0.749,0C25.517,3.112,24.978,4.34,25,4.665c0.01,0.162,0.154,0.611,0.193,0.771
			c1.394-1.888,2.802-2.486,3.604-2.356c0.386,0.062,0.666,0.505,0.666,0.841h-0.856c-0.077-0.307-0.63-0.065-1.308,0.501
			c-0.662,0.553-1.296,1.115-1.39,1.489C25.854,6.13,25.71,6.704,25.212,6.704z"/>
	</g>
</g>
</svg>
